<?xml version="1.0" encoding="UTF-8" standalone="no"?>
<svg
   xmlns:dc="http://purl.org/dc/elements/1.1/"
   xmlns:cc="http://creativecommons.org/ns#"
   xmlns:rdf="http://www.w3.org/1999/02/22-rdf-syntax-ns#"
   xmlns:svg="http://www.w3.org/2000/svg"
   xmlns="http://www.w3.org/2000/svg"
   viewBox="0 0 225.66667 339.65332"
   height="339.65332"
   width="225.66667"
   xml:space="preserve"
   id="svg2"
   version="1.1"><metadata
     id="metadata8"><rdf:RDF><cc:Work
         rdf:about=""><dc:format>image/svg+xml</dc:format><dc:type
           rdf:resource="http://purl.org/dc/dcmitype/StillImage" /></cc:Work></rdf:RDF></metadata><defs
     id="defs6" /><g
     transform="matrix(1.3333333,0,0,-1.3333333,0,339.65333)"
     id="g10"><g
       transform="scale(0.1)"
       id="g12"><path
         id="path14"
         style="fill:#100f0d;fill-opacity:1;fill-rule:nonzero;stroke:none"
         d="m 270.199,934.531 -33.597,57.598 c 2.543,21.641 36,48.001 36,48.001 L 270.199,934.531 M 1676.6,1524.93 c -17.32,6.56 -59.39,-28.08 -117.6,-36 -58.21,-7.92 -103.2,-16.8 -103.2,-16.8 l -7.2,12 c 0,0 -201.62,-67.15 -292.8,-74.4 -91.18,-7.25 -196.8,21.6 -196.8,21.6 l -621.602,-2.4 -93.597,-105.6 c 0,0 -222.5276,-224.45 -235.19944,-292.8 C -4.07422,962.18 167,802.531 167,802.531 c 0,0 -18.605,6.68 -12,-19.199 0,0 -14.133,21.75 -26.398,12 -17.672,-14.043 -2.43,-60.223 12,-79.203 14.425,-18.981 77.214,-50.16 98.398,-55.199 21.184,-5.032 55.199,9.601 55.199,9.601 L 311,480.93 l 24,9.601 c 0,0 -1.008,-248.34 19.199,-357.601 0,0 -82.933,4.82 -105.597,-40.8011 -22.668,-45.6172 -8.407,-89.10937 4.796,-91.199212 13.207,-2.089848 223.95,0 244.801,0 20.852,0 4.985,72.210912 2.403,124.800312 -2.586,52.59 26.343,206.61 79.199,254.399 52.851,47.793 100.133,66.223 136.801,52.801 36.668,-13.418 130.816,-70.071 172.796,-139.2 41.985,-69.128 64.801,-165.601 64.801,-165.601 0,0 -24.59,-47.3399 -21.597,-79.1993 C 935.594,17.0703 956.391,15.332 1007,15.332 h 120 c 16.16,0 14.02,71.5977 0,103.199 -20.3,45.77 -52.8,57.598 -52.8,57.598 0,0 -27.58,240.242 -31.2,300 l 28.8,7.203 c 0,0 36.85,509.359 -4.8,679.198 0,0 74.77,16.28 151.2,55.2 76.43,38.92 180.64,79.41 223.2,81.6 l 7.2,21.6 c 0,0 63.07,-6.8 93.6,-7.2 30.53,-0.4 85.18,39.66 86.4,60 0,0 18.14,5.44 21.6,19.2 3.46,13.76 2.4,40.8 2.4,40.8 0,0 22.66,6.33 33.6,24 10.94,17.67 7.72,60.64 -9.6,67.2" /><path
         id="path16"
         style="fill:#f1814e;fill-opacity:1;fill-rule:nonzero;stroke:none"
         d="m 210.199,783.332 -2.398,-33.602 -28.801,36 c -17.691,7.95 -10.699,-20.851 -2.398,-36 8.296,-15.148 31.199,-26.398 31.199,-26.398 0,0 -20.141,1.547 -33.602,12 -13.457,10.449 -23.965,38.578 -31.199,33.598 -7.234,-4.981 -0.508,-28.571 12,-45.598 12.512,-17.031 61.051,-42.332 86.398,-43.203 25.352,-0.867 48,14.402 48,14.402 L 272.602,833.73 C 249.137,798.059 210.199,783.332 210.199,783.332 M 1587.8,1409.73 c 19.36,-3.87 31.2,-16.8 31.2,-16.8 27.99,7.17 16.8,36 16.8,36 -16.07,-6.79 -48,-19.2 -48,-19.2 m 50.4,81.6 c -25.8,-13.02 -84.02,-24.11 -115.2,-28.8 -31.18,-4.69 -69.6,-19.2 -69.6,-19.2 0,0 5.62,-72.51 -4.8,-103.2 0,0 66.91,-13.39 96,-7.2 29.09,6.2 56.43,25.08 57.6,40.8 1.17,15.72 -15.87,25.62 -48,16.8 -32.13,-8.82 -45.6,-4.8 -45.6,-4.8 0,0 52.54,8.35 67.2,31.2 0,0 10.88,6.52 36,19.2 25.12,12.68 56.52,20.81 57.6,43.2 1.08,22.39 -5.4,25.02 -31.2,12" /><path
         id="path18"
         style="fill:#100f0d;fill-opacity:1;fill-rule:nonzero;stroke:none"
         d="m 207.801,723.332 c 0,0 -14.442,1.109 -27.039,7.797 l -0.16,0.152 c 12.636,-6.769 27.199,-7.949 27.199,-7.949 M 143,768.93 c 0.008,0.011 0.02,0.011 0.027,0.019 -0.007,-0.008 -0.019,-0.008 -0.027,-0.019 m 1381.9,562.37 c -32.16,0 -76.3,8.83 -76.3,8.83 v 0 c 0,0 44.14,-8.83 76.3,-8.83 7.44,0 14.24,0.47 19.7,1.63 29.09,6.2 56.43,25.08 57.6,40.8 0,0.02 0,0.04 0,0.07 0,-0.03 0,-0.05 0,-0.07 -1.17,-15.72 -28.51,-34.6 -57.6,-40.8 -5.46,-1.16 -12.26,-1.63 -19.7,-1.63 m -71.5,112.03 v 0 0 m 216.01,36.11 c 0,0 0,0.01 0,0.02 0,-0.01 0,-0.02 0,-0.02" /><path
         id="path20"
         style="fill:#d04e36;fill-opacity:1;fill-rule:nonzero;stroke:none"
         d="m 243.508,680.09 c -0.699,0 -1.403,0.019 -2.11,0.039 -25.347,0.871 -73.886,26.172 -86.398,43.203 -8.965,12.207 -14.961,27.777 -14.973,37.457 -0.004,3.832 0.926,6.731 2.973,8.141 v 0 c 0.008,0.011 0.02,0.011 0.027,0.019 0.567,0.383 1.157,0.563 1.762,0.563 2.156,0 4.566,-2.25 7.211,-5.641 -10.809,-2.762 -2.559,-20.851 19.801,-38.141 21.64,-16.742 37.922,-28.91 58.863,-28.91 1.164,0 2.344,0.032 3.535,0.11 22.684,1.449 28.801,7.199 28.801,7.199 l -12,76.801 -31.199,-7.2 -2.403,-57.601 c 0,0 -21.578,2.293 -35.996,14.402 l -0.64,0.598 c 12.597,-6.688 27.039,-7.797 27.039,-7.797 v 0 0 0 c 0,0 -22.903,11.25 -31.199,26.398 -4.508,8.231 -8.629,20.469 -8.622,28.68 0,5.129 1.618,8.68 5.762,8.68 1.438,0 3.176,-0.43 5.258,-1.36 l 28.801,-36 2.398,33.602 c 0,0 38.938,14.727 62.403,50.398 l 16.796,-139.199 c 0,0 -21.406,-14.441 -45.89,-14.441 M 1524.9,1331.3 c -32.16,0 -76.3,8.83 -76.3,8.83 5.02,14.77 6.31,39.24 6.31,60.65 0,23.05 -1.51,42.55 -1.51,42.55 v 0 0 c 0.12,0.05 5.36,2.02 13.47,4.73 3.73,-19.24 8.74,-47.06 8.13,-55.13 -0.19,-2.53 1.87,-3.59 5.43,-3.59 14.35,0.01 52.99,17.21 66.57,25.19 16.95,9.96 19.58,28.12 48,38.4 26,9.41 68.08,17.77 70.02,44.82 3.66,-2.43 4.86,-8.27 4.39,-18.29 0,-0.01 0,-0.02 0,-0.02 -0.01,-0.04 -0.01,-0.07 -0.01,-0.11 v 0 c -1.08,-22.39 -32.48,-30.52 -57.6,-43.2 -25.12,-12.68 -36,-19.2 -36,-19.2 -14.66,-22.85 -67.2,-31.2 -67.2,-31.2 v 0 0 c 0,0 3.06,-0.91 9.75,-0.91 7.34,0 19.04,1.1 35.85,5.71 8.13,2.23 15.24,3.22 21.33,3.22 4.47,0 8.39,-0.53 11.78,-1.48 -5.44,-1.93 -15.51,-4.9 -35.51,-6.54 -50.1,-4.12 -76.01,-8.66 -67.2,-21.6 6.71,-9.85 28.75,-12.72 46.97,-12.72 5.72,0 11.06,0.29 15.43,0.72 18.33,1.82 57.57,16.97 50.4,33.6 l -0.76,1.85 c 3.98,-3.52 5.96,-8.26 5.56,-13.78 0,-0.03 0,-0.05 0,-0.07 -1.17,-15.72 -28.51,-34.6 -57.6,-40.8 -5.46,-1.16 -12.26,-1.63 -19.7,-1.63 m 94.1,61.63 c 0,0 -11.84,12.93 -31.2,16.8 0,0 31.93,12.41 48,19.2 0,0 2.21,-5.69 2.21,-12.65 0,-8.69 -3.46,-19.37 -19.01,-23.35" /><path
         id="path22"
         style="fill:#ffffff;fill-opacity:1;fill-rule:nonzero;stroke:none"
         d="m 695,1184.13 24,-69.6 31.199,72 -38.398,43.2 -16.801,-45.6 m -163.199,-12 50.398,-84 19.199,84 -33.597,48 -36,-48 m 136.801,148.8 91.199,-108 98.398,201.6 -189.597,-93.6 m -148.801,-127.2 98.398,132 -180,28.8 81.602,-160.8" /><path
         id="path24"
         style="fill:#eb242f;fill-opacity:1;fill-rule:nonzero;stroke:none"
         d="m 671,1167.33 -43.199,-2.4 -26.403,-96 57.602,-81.598 43.199,95.998 -31.199,84 m 0,24 24,55.2 -55.199,84 -52.801,-91.2 36,-52.8 48,4.8" /><path
         id="path26"
         style="fill:#1c2947;fill-opacity:1;fill-rule:nonzero;stroke:none"
         d="m 1047.8,178.531 -36,304.801 C 794.273,512.988 685.398,588.93 685.398,588.93 l -324,-91.2 c -14.824,-177.871 14.403,-360 14.403,-360 0,0 4.683,-3.089 38.398,-14.398 33.715,-11.312 64.801,-12 64.801,-12 -5.605,140.438 60,256.797 60,256.797 l -57.602,-45.598 c 0,0 110.243,138.571 204,136.801 201.856,-3.801 290.403,-307.203 290.403,-307.203 18.316,34.711 71.999,26.402 71.999,26.402 M 1427,1450.53 c 0,0 -147.27,-55.64 -271.2,-62.4 -123.93,-6.76 -194.398,12 -194.398,12 l 55.198,-124.8 -100.799,-57.6 38.398,-74.4 -276,-213.6 21.602,-319.199 c 141.992,-86.23 352.799,-96 352.799,-96 14.5,259.481 1.81,560.199 -4.8,609.599 -6.6,49.4 -47.999,105.6 -47.999,105.6 l 43.199,-36 c 0,0 66.04,1.62 177.6,55.2 92.52,44.44 199.2,74.4 199.2,74.4 22.05,52.39 7.2,127.2 7.2,127.2 M 263,905.73 c -38.355,44.231 -69.602,136.8 -69.602,136.8 l 28.801,-26.4 c 6.824,21.45 48,60 48,60 1.188,25.75 8.031,86.78 12.61,125.81 0,0 10.168,-90.6 11.39,-137.81 1.227,-47.21 -5.883,-125.9 4.801,-249.599 10.684,-123.699 33.602,-300 33.602,-300 l 345.597,93.598 -26.398,319.203 c 0,0 -187.86,84.918 -273.602,158.398 l 21.602,93.6 -112.801,57.6 -14.398,14.4 50.398,112.8 c 0,0 -294.4062,-308.67 -288,-355.2 6.4063,-46.532 168,-206.399 168,-206.399 46.566,15 64.801,64.801 64.801,64.801 L 263,905.73 m 640.801,571.2 C 880.852,1407.88 772.301,1169 772.301,1169 l 213.097,113.53 -81.597,194.4 m -9.602,-271.2 -134.422,-63.07 -86.379,-181.73 254.403,194.4 -33.602,50.4 m -492,-108 c 0,0 166.586,-115.839 249.602,-144 0,0 -63.524,83.51 -121.36,176.34 l -106.64,42.06 -21.602,-74.4 M 515,1155.33 c -75.246,125.63 -139.199,259.2 -139.199,259.2 l -72,-151.2 c 57.293,-44.11 211.199,-108 211.199,-108" /><path
         id="path28"
         style="fill:#232221;fill-opacity:1;fill-rule:nonzero;stroke:none"
         d="m 380.602,113.73 c 0,0 -26.918,-2.628 -76.801,-14.398 -49.883,-11.7617 -46.188,-58.0507 -38.399,-81.6015 0,0 209.969,0 220.797,0 10.828,0 -9.597,72 -9.597,72 0,0 -58.262,4.2187 -96,23.9995" /><path
         id="path30"
         style="fill:#232221;fill-opacity:1;fill-rule:nonzero;stroke:none"
         d="m 1040.6,161.73 c -68.655,0 -93.491,-107.1284 -79.198,-117.6011 7.598,-5.5703 44.738,-7.4883 81.598,-7.1992 32.46,0.25 65.26,1.6289 69.6,12 9.28,22.1406 -10.74,112.8003 -72,112.8003" /><path
         id="path32"
         style="fill:#100f0d;fill-opacity:1;fill-rule:nonzero;stroke:none"
         d="m 486.199,17.7305 c -10.828,0 -220.797,0 -220.797,0 -2.511,7.5898 -4.597,17.539 -4.597,27.9297 0,-10.3907 2.086,-20.3399 4.597,-27.9297 0,0 209.969,0 220.797,0 0.012,0 0.02,0 0.031,0 -0.007,0 -0.019,0 -0.031,0 m 0.039,0 c 0.008,0 0.016,0 0.024,0 -0.008,0 -0.016,0 -0.024,0 m 0.035,0 c 0.004,0 0.012,0 0.02,0 -0.008,0 -0.012,0 -0.02,0 m 0.032,0 c 0.004,0 0.011,0 0.015,0 -0.004,0 -0.011,0 -0.015,0 m 0.031,0 c 0.004,0 0.012,0 0.016,0.0117 -0.004,-0.0117 -0.012,-0.0117 -0.016,-0.0117 m 0.031,0.0117 c 0.004,0 0.008,0 0.016,0 -0.008,0 -0.012,0 -0.016,0 m 0.028,0 c 0.007,0 0.011,0 0.015,0 -0.004,0 -0.008,0 -0.015,0 m 0.031,0 c 0.004,0 0.008,0 0.012,0 -0.004,0 -0.008,0 -0.012,0 m 0.031,0 c 0.004,0 0.008,0.0078 0.012,0.0078 -0.004,0 -0.008,-0.0078 -0.012,-0.0078 m 0.027,0.0078 c 0.004,0 0.008,0 0.012,0 -0.004,0 -0.008,0 -0.012,0 m 0.032,0 c 0.004,0 0.004,0 0.007,0 -0.003,0 -0.007,0 -0.007,0 m 0.027,0.0117 c 0.004,0 0.004,0 0.008,0 -0.004,0 -0.004,0 -0.008,0 m 549.387,19.1367 c -34.42,0 -67.414,2.0235 -74.528,7.2305 -2.582,1.8906 -3.886,6.9414 -3.886,13.9414 0,-7 1.304,-12.0508 3.886,-13.9414 7.114,-5.207 40.108,-7.2305 74.528,-7.2305 2.36,0 4.71,0.0118 7.07,0.0313 32.46,0.25 65.26,1.6289 69.6,12 0.01,0.0195 0.02,0.0391 0.02,0.0625 0,-0.0234 -0.01,-0.043 -0.02,-0.0625 -4.34,-10.3711 -37.14,-11.75 -69.6,-12 -2.36,-0.0195 -4.71,-0.0313 -7.07,-0.0313 M 476.602,89.7305 v 0 0 M 479,111.332 c -0.207,5.227 -0.32,10.43 -0.336,15.59 0.008,0 0.02,0 0.027,0 0.02,-5.172 0.102,-10.352 0.309,-15.59 m 535.16,352.008 v 0 l -2.36,19.992 2.36,-19.992" /><path
         id="path34"
         style="fill:#161c2a;fill-opacity:1;fill-rule:nonzero;stroke:none"
         d="m 479,111.332 c 0,0 -31.086,0.688 -64.801,12 -33.715,11.309 -38.398,14.398 -38.398,14.398 0,0 -18.606,115.942 -18.598,253.149 0.004,34.769 1.199,70.902 4.195,106.851 l 324,91.2 c 0,0 108.875,-75.942 326.402,-105.598 v 0 l 2.36,-19.992 c -21.246,2.5 -47.57,7.051 -79.16,15.191 -95.527,24.629 -254.398,81.598 -254.398,81.598 L 402.199,468.93 c 0,0 -1.484,-16.981 -4.801,-84 -3.312,-67.02 12,-242.399 12,-242.399 29.231,-12.851 53.856,-15.551 69.266,-15.609 0.016,-5.16 0.129,-10.363 0.336,-15.59 v 0" /><path
         id="path36"
         style="fill:#100f0d;fill-opacity:1;fill-rule:nonzero;stroke:none"
         d="m 975.871,152.262 c 0.008,0.019 0.016,0.027 0.02,0.039 -0.004,-0.012 -0.012,-0.02 -0.02,-0.039 m 0.07,0.136 c 0.008,0.012 0.02,0.032 0.028,0.043 -0.012,-0.011 -0.02,-0.031 -0.028,-0.043 m 0.071,0.133 c 0.008,0.008 0.019,0.028 0.031,0.051 -0.012,-0.023 -0.023,-0.043 -0.031,-0.051 m 0.07,0.129 c 0.012,0.02 0.02,0.031 0.031,0.051 -0.011,-0.02 -0.019,-0.031 -0.031,-0.051 m 0.07,0.129 c 0.012,0.02 0.024,0.043 0.036,0.063 -0.012,-0.02 -0.024,-0.043 -0.036,-0.063 m 0.071,0.121 c 0.011,0.031 0.023,0.051 0.035,0.07 -0.012,-0.019 -0.024,-0.039 -0.035,-0.07 m 0.074,0.129 c 0.012,0.031 0.023,0.051 0.035,0.07 -0.012,-0.019 -0.023,-0.039 -0.035,-0.07 m 0.066,0.133 c 0.016,0.019 0.028,0.039 0.039,0.07 -0.011,-0.023 -0.023,-0.051 -0.039,-0.07 m 0.075,0.117 c 0.011,0.031 0.027,0.051 0.039,0.082 -0.012,-0.031 -0.028,-0.051 -0.039,-0.082 m 0.062,0.121 c 5.715,10.02 14.473,16.289 23.92,20.141 0,0 0,0 0,-0.012 -9.443,-3.848 -18.205,-10.109 -23.92,-20.129 M 521.406,330.879 c 9.836,23.453 17.496,37.082 17.594,37.25 -0.094,-0.168 -7.758,-13.797 -17.59,-37.25 h -0.004 M 539,368.129 v 0 0 m 0,0 v 0 0 0" /><path
         id="path38"
         style="fill:#161c2a;fill-opacity:1;fill-rule:nonzero;stroke:none"
         d="m 975.801,152.129 c 0,0 -88.547,303.402 -290.403,307.203 -0.593,0.008 -1.183,0.02 -1.781,0.02 -93.371,0 -202.219,-136.821 -202.219,-136.821 v 0 0 L 539,368.129 v 0 0 0 0 c -0.098,-0.168 -7.758,-13.797 -17.594,-37.25 L 455,298.531 c 0,0 84.59,169.059 225.602,172.801 2.597,0.066 5.168,0.098 7.75,0.098 137.468,0 249.046,-96.098 249.046,-96.098 l -88.796,31.199 c 0,0 66.527,-60.211 93.597,-105.601 23.383,-39.2 51.086,-109.032 58.221,-127.379 -9.447,-3.852 -18.205,-10.121 -23.92,-20.141 -0.008,-0.019 -0.016,-0.031 -0.023,-0.039 -0.012,-0.031 -0.028,-0.051 -0.039,-0.082 -0.012,-0.019 -0.024,-0.027 -0.036,-0.047 -0.011,-0.031 -0.023,-0.051 -0.039,-0.07 -0.008,-0.024 -0.019,-0.043 -0.031,-0.063 -0.012,-0.019 -0.023,-0.039 -0.035,-0.07 -0.016,-0.019 -0.027,-0.039 -0.039,-0.059 -0.012,-0.019 -0.024,-0.039 -0.035,-0.07 -0.012,-0.019 -0.024,-0.039 -0.035,-0.058 -0.012,-0.02 -0.024,-0.043 -0.036,-0.063 -0.011,-0.027 -0.027,-0.047 -0.039,-0.078 -0.011,-0.02 -0.019,-0.031 -0.031,-0.051 -0.016,-0.031 -0.027,-0.051 -0.039,-0.078 -0.012,-0.023 -0.023,-0.043 -0.031,-0.051 -0.016,-0.031 -0.032,-0.062 -0.043,-0.09 -0.008,-0.011 -0.02,-0.031 -0.028,-0.043 -0.015,-0.039 -0.035,-0.066 -0.05,-0.097 -0.004,-0.012 -0.012,-0.02 -0.02,-0.039 -0.023,-0.043 -0.047,-0.09 -0.07,-0.133 v 0" /><path
         id="path40"
         style="fill:#100f0d;fill-opacity:1;fill-rule:nonzero;stroke:none"
         d="m 1014.16,463.34 v 0 0 m 405.73,860.19 c 0,0.02 0.01,0.03 0.01,0.05 0,-0.02 -0.01,-0.03 -0.01,-0.05 m -385.15,65.83 c -47.65,3.93 -73.338,10.77 -73.338,10.77 0,0 25.813,-6.81 73.388,-10.74 l -0.05,-0.03" /><path
         id="path42"
         style="fill:#161c2a;fill-opacity:1;fill-rule:nonzero;stroke:none"
         d="m 1052.6,514.531 c 0,0 -210.807,9.77 -352.799,96 l -21.602,319.199 276,213.6 -38.398,74.4 100.799,57.6 -55.198,124.8 v 0 c 0,0 25.688,-6.84 73.338,-10.77 l -27.74,-18.03 48,-112.8 -16.8,-9.6 c 0,0 -5.04,-14.47 16.94,-14.47 4.9,0 11.13,0.71 19.06,2.47 43.53,9.64 123.28,51.72 201.6,76.8 58.69,18.8 123.75,33.68 152.68,39.96 -1.87,-10.38 -4.61,-20.62 -8.58,-30.11 0,-0.02 -0.01,-0.03 -0.01,-0.05 -0.03,-0.06 -0.06,-0.13 -0.09,-0.2 v 0 c 0,0 -106.68,-29.96 -199.2,-74.4 -111.56,-53.58 -177.6,-55.2 -177.6,-55.2 l -43.199,36 v 0 c 0,0 41.399,-56.2 47.999,-105.6 0.98,-7.35 2.1,-20.39 3.25,-37.92 -19.77,40.69 -50.01,87.9 -87.249,97.92 l 24,-57.6 L 719,910.531 l 74.398,-43.199 -76.796,4.797 9.597,-240 c 0,0 186.086,-76.867 327.841,-89.66 -0.45,-9.348 -0.92,-18.68 -1.44,-27.938 v 0" /><path
         id="path44"
         style="fill:#161c2a;fill-opacity:1;fill-rule:nonzero;stroke:none"
         d="m 332.602,514.531 c 0,0 -22.918,176.301 -33.602,300 -4.77,55.207 -5.992,101.449 -5.996,139.93 0,40.41 1.344,72.259 1.344,96.949 0,4.47 -0.043,8.71 -0.149,12.72 -1.222,47.21 -11.39,137.81 -11.39,137.81 -4.579,-39.03 -11.422,-100.06 -12.61,-125.81 0,0 -41.176,-38.55 -48,-60 l -28.801,26.4 v 0 c 0,0 31.247,-92.569 69.602,-136.8 l 4.801,-38.398 c 0,0 -18.235,-49.801 -64.801,-64.801 0,0 -161.5937,159.867 -168,206.399 -0.0703,0.5 -0.1016,1.03 -0.1016,1.59 -0.0117,40.66 179.3636,237.31 255.0426,318.46 8.657,4.06 16.407,8.59 23.293,13.3 l -40.632,-90.95 14.398,-14.4 112.801,-57.6 -21.602,-93.6 v 0 C 463.941,1012.25 651.801,927.332 651.801,927.332 L 678.199,608.129 332.602,514.531 m 33.597,525.599 c -3.14,-141.681 26.403,-487.2 26.403,-487.2 C 496.977,576.359 647,639.332 647,639.332 L 625.398,874.531 447.801,840.93 623,908.129 C 544.496,931.68 366.199,1040.13 366.199,1040.13 m -112.801,184.8 c 0,0 -56.101,-59.04 -105.597,-103.2 C 98.3008,1077.57 66.25,1040.7 85.3984,1004.13 104.551,967.559 219.801,831.332 219.801,831.332 c 22.504,15.566 36,57.598 36,57.598 0,0 -33.074,42.242 -52.801,79.199 -19.727,36.961 -52.801,120.001 -52.801,120.001 l 64.801,-38.4 36,36 2.398,139.2" /><path
         id="path46"
         style="fill:#161c2a;fill-opacity:1;fill-rule:nonzero;stroke:none"
         d="m 651.801,953.73 c -83.016,28.161 -249.602,144 -249.602,144 l 21.602,74.4 106.64,-42.06 c 57.836,-92.83 121.36,-176.34 121.36,-176.34 m -213.602,187.2 -12,-40.8 c 42.531,-27.76 192,-120.001 192,-120.001 l -88.797,132.001 -91.203,28.8" /><path
         id="path48"
         style="fill:#161c2a;fill-opacity:1;fill-rule:nonzero;stroke:none"
         d="m 673.398,960.93 86.379,181.73 134.422,63.07 33.602,-50.4 -254.403,-194.4 m 216,218.4 -120,-52.8 -57.597,-120 189.597,151.2 -12,21.6" /><path
         id="path50"
         style="fill:#911c20;fill-opacity:1;fill-rule:nonzero;stroke:none"
         d="m 659,987.332 -57.602,81.598 26.403,96 43.199,2.4 31.199,-84 L 659,987.332 m 12,155.998 -38.398,-2.4 -12,-72 33.597,-50.4 38.403,62.4 -21.602,62.4" /><path
         id="path52"
         style="fill:#9c9c9b;fill-opacity:1;fill-rule:nonzero;stroke:none"
         d="m 582.199,1088.13 -50.398,84 36,48 33.597,-48 -19.199,-84 m -19.199,100.8 -16.801,-21.6 28.801,-48 7.199,48 -19.199,21.6" /><path
         id="path54"
         style="fill:#9c9c9b;fill-opacity:1;fill-rule:nonzero;stroke:none"
         d="m 719,1114.53 -24,69.6 16.801,45.6 38.398,-43.2 -31.199,-72 m -2.398,79.2 -9.602,-19.2 12,-33.6 12,33.6 -14.398,19.2" /><path
         id="path56"
         style="fill:#161c2a;fill-opacity:1;fill-rule:nonzero;stroke:none"
         d="m 515,1155.33 c 0,0 -153.906,63.89 -211.199,108 l 58.871,123.63 c 6.426,-6.01 21.133,-18.83 42.941,-32.38 25.77,-50.6 65.672,-126.27 109.387,-199.25 m -98.398,129.6 -64.801,-4.8 -14.403,-19.2 c 37.543,-19.77 146.403,-79.2 146.403,-79.2 l -67.199,103.2" /><path
         id="path58"
         style="fill:#161c2a;fill-opacity:1;fill-rule:nonzero;stroke:none"
         d="m 772.301,1169 c 0,0 67.082,147.63 106.926,244.32 4.972,3.79 7.773,6.01 7.773,6.01 0,0 17.594,-4.8 44.469,-8.32 L 985.398,1282.53 772.301,1169 m 155.5,199.93 -38.403,-4.8 -74.398,-153.6 146.402,81.6 -33.601,76.8" /><path
         id="path60"
         style="fill:#911c20;fill-opacity:1;fill-rule:nonzero;stroke:none"
         d="m 623,1186.53 -36,52.8 37.43,64.65 c 10.59,0.48 20.996,1.3 31.238,2.41 l 39.332,-59.86 -24,-55.2 -48,-4.8 m 14.398,84 -28.796,-33.6 19.199,-31.2 36,2.4 12,36 -38.403,26.4" /><path
         id="path62"
         style="fill:#9c9c9b;fill-opacity:1;fill-rule:nonzero;stroke:none"
         d="m 519.801,1193.73 -70.059,138.05 c 11.934,-5 24.906,-9.55 38.86,-13.25 40.121,-10.64 77.613,-14.9 113.027,-15.03 l -81.828,-109.77 m -36,96 38.398,-67.2 48,57.6 c 0,0 -13.746,-2.16 -31.222,-2.16 -18.114,0.01 -40.231,2.32 -55.176,11.76" /><path
         id="path64"
         style="fill:#9c9c9b;fill-opacity:1;fill-rule:nonzero;stroke:none"
         d="m 759.801,1212.93 -81.383,96.37 c 8.844,1.31 17.566,2.81 26.184,4.43 39.976,7.54 100.707,46.49 140.957,74.9 l -85.758,-175.7 m 48,127.2 c 0,0 -58.059,-40.44 -93.602,-52.8 l 40.801,-45.6 52.801,98.4" /><path
         id="path66"
         style="fill:#1a1918;fill-opacity:1;fill-rule:nonzero;stroke:none"
         d="m 486.199,17.7305 c -10.828,0 -220.797,0 -220.797,0 -2.511,7.5898 -4.597,17.539 -4.597,27.9297 -0.008,21.8711 9.187,45.6992 42.996,53.6718 49.883,11.77 76.801,14.398 76.801,14.398 37.738,-19.7808 96,-23.9995 96,-23.9995 v 0 0 c 0.007,-0.0391 1.781,-6.3086 3.992,-15.0586 -2.379,-0.0703 -5.02,-0.1133 -7.871,-0.1133 -16.383,0 -39.586,1.4023 -58.524,7.9727 -24.597,8.539 -13.367,18.3007 -24.238,18.3007 -3.731,0 -10.07,-1.1523 -21.363,-3.9023 -44.164,-10.7578 -89.344,-25.4883 -64.797,-50.3984 14.867,-15.0899 35.387,-18.0625 63.726,-18.0625 18.446,0 40.203,1.2617 65.871,1.2617 30.297,0 45.29,9.8789 52.77,20.4414 3.23,-16.3399 5.004,-31.6914 0.383,-32.4102 -0.004,0 -0.004,0 -0.008,0 -0.008,-0.0117 -0.016,-0.0117 -0.02,-0.0117 -0.003,0 -0.003,0 -0.007,0 -0.008,0 -0.012,0 -0.02,0 -0.004,0 -0.008,0 -0.012,0 -0.004,0 -0.011,0 -0.015,0 -0.004,0 -0.008,-0.0078 -0.012,-0.0078 -0.008,0 -0.012,0 -0.019,0 -0.004,0 -0.008,0 -0.012,0 -0.004,0 -0.012,0 -0.016,0 -0.004,0 -0.008,0 -0.015,0 -0.004,0 -0.008,0 -0.012,0 -0.008,0 -0.012,0 -0.016,0 -0.008,0 -0.012,0 -0.015,0 -0.004,-0.0117 -0.012,-0.0117 -0.016,-0.0117 -0.004,0 -0.012,0 -0.016,0 -0.004,0 -0.011,0 -0.015,0 -0.004,0 -0.008,0 -0.012,0 -0.008,0 -0.016,0 -0.02,0 -0.003,0 -0.007,0 -0.011,0 -0.008,0 -0.016,0 -0.024,0 0,0 -0.004,0 -0.008,0 -0.011,0 -0.019,0 -0.031,0" /><path
         id="path68"
         style="fill:#1a1918;fill-opacity:1;fill-rule:nonzero;stroke:none"
         d="m 1035.93,36.8984 c -34.42,0 -67.414,2.0235 -74.528,7.2305 -2.582,1.8906 -3.886,6.9414 -3.886,13.9414 0,31.7383 26.836,103.6597 83.084,103.6597 2.29,0 4.41,-0.371 6.59,-0.609 -29.09,-6.301 -45.17,-37.812 -49.788,-64.1913 -5.992,-34.2305 16.458,-31.8984 59.998,-36 4.59,-0.4297 9.06,-0.6484 13.37,-0.6484 18.42,0 33.91,3.9375 43.46,11.7695 0.94,-9.8399 0.43,-18.1602 -1.61,-23.0586 0,-0.0234 -0.01,-0.043 -0.02,-0.0625 -4.34,-10.3711 -37.14,-11.75 -69.6,-12 -2.36,-0.0195 -4.71,-0.0313 -7.07,-0.0313" /><path
         id="path70"
         style="fill:#100f0d;fill-opacity:1;fill-rule:evenodd;stroke:none"
         d="m 1093.4,1565.73 c -54.68,42.63 -7.2,160.8 -7.2,160.8 0,0 105.24,51.11 4.8,199.2 0,0 42.44,93.44 28.8,132 -5.49,15.51 -13.1,11.99 -22.91,8.47 -14.59,-5.24 -34.05,-10.48 -58.69,46.73 -41.22,95.71 11.36,173.92 -93.598,256.8 0,0 71.088,84.67 -211.2,156 -282.293,71.34 -409.574,-51.35 -482.402,-115.2 -72.824,-63.85 -158.25,-124.1 -243.25,-21.6 0,0 -58.75,-186.25 147.25,-172.8 0,0 -62.832,-71.95 -69.6016,-129.6 -6.7656,-57.65 7.0352,-183.39 -38.3984,-208.8 0,0 17.6289,-63.93 74.398,-86.4 0,0 -74.8433,-182.96 60.004,-256.8 0,0 52.782,-42.71 31.2,-98.4 -21.586,-55.69 -91.204,-43.2 -91.204,-43.2 0,0 51.512,-92.96 129.602,-76.8 78.09,16.16 108,74.4 108,74.4 0,0 48.352,-50.45 129.602,-72 81.25,-21.55 151.664,-16.94 216,-4.8 64.332,12.14 182.398,105.6 182.398,105.6 0,0 284.42,-77.7 314.4,163.2 0,0 -53.32,-59.43 -108,-16.8" /><path
         id="path72"
         style="fill:#f1814e;fill-opacity:1;fill-rule:nonzero;stroke:none"
         d="m 983,1923.33 c 0,0 0.371,-45.43 14.402,-81.6 14.028,-36.17 23.998,-112.8 23.998,-112.8 0,0 69.61,10.52 86.4,52.8 16.79,42.28 -30.07,194.58 -124.8,141.6 m -784.801,-170.4 c 0,0 -30.488,47 -45.597,26.4 -15.114,-20.6 -49.887,-119.86 -2.403,-182.4 47.489,-62.54 81.602,-12 81.602,-12 0,0 -8.672,16.75 -19.199,48 -10.528,31.26 -14.403,120 -14.403,120 m 655.199,271.2 c 0,0 38.293,24.47 74.403,7.2 0,0 -41.938,171.96 -93.602,235.2 -51.664,63.24 -48.851,60.91 -98.398,40.8 -49.547,-20.1 -190.656,-55.52 -439.199,-60 0,0 -65.993,-23.72 -74.403,-163.2 -8.406,-139.48 -12,-196.8 -12,-196.8 0,0 5.727,55.97 52.801,60 0,0 -63.07,-85.39 -2.398,-139.2 0,0 -39.594,8.57 -48,36 0,0 2.668,-162.11 28.796,-225.6 26.133,-63.48 81.118,-152.26 115.204,-189.6 34.082,-37.34 63.867,-57.24 96,-69.6 l -64.801,122.4 112.801,-136.8 c 0,0 109.152,-46.33 261.597,19.2 0,0 28.332,68.9 62.403,100.8 31.199,29.22 53.503,69.23 57.046,75.78 l 0.551,1.02 -0.551,-1.02 -83.449,-154.98 c 0,0 58.11,38.33 84,69.6 25.891,31.27 111.391,134.4 117.602,242.4 4.409,76.75 -19.793,109.88 -31.199,172.8 -11.411,62.92 -8.512,163.67 -115.204,153.6" /><path
         id="path74"
         style="fill:#f8a178;fill-opacity:1;fill-rule:nonzero;stroke:none"
         d="m 378.199,2201.73 c -44.633,-0.35 -67.941,-48.68 -88.801,-93.6 -20.855,-44.92 -24.406,-84.09 7.204,-100.8 0,0 -1.512,-17.03 9.597,-45.6 11.11,-28.57 64.508,-27.21 100.801,-9.6 36.297,17.61 45.602,74.4 45.602,74.4 0,0 13.543,10.2 7.199,33.6 0,0 18.887,-6.08 14.398,43.2 -4.488,49.29 -51.363,98.75 -96,98.4 m 417.602,-84 c -27.383,28.79 15.605,32.08 -38.403,79.2 -54.003,47.12 -135.16,-16.4 -146.398,-45.6 -11.238,-29.19 -10.023,-117.9 16.801,-115.2 0,0 58.742,-53.08 120,-38.4 61.258,14.68 54.328,43.8 45.597,64.8 0,0 29.786,26.41 2.403,55.2 m -194.403,-434.4 c -85.777,-11.41 -99.945,-126.36 14.403,-108 114.347,18.37 71.379,119.41 -14.403,108" /><path
         id="path76"
         style="fill:#fad823;fill-opacity:1;fill-rule:nonzero;stroke:none"
         d="m 1045.4,1618.53 c -5.22,67.81 7.2,91.2 7.2,91.2 l -24,-12 c -6.51,-60.22 -38.209,-156.78 -67.198,-189.6 -28.992,-32.82 -40.8,-64.8 -40.8,-64.8 180.908,-40.65 230.398,79.2 230.398,79.2 -64.04,-15.16 -100.38,28.19 -105.6,96 M 215,1541.73 c 78.141,-157.89 -40.801,-172.8 -40.801,-172.8 90.559,-67.85 165.602,40.8 165.602,40.8 -38.496,39.69 -100.801,144 -100.801,144 l -24,-12 m -26.398,439.2 c 7.281,50.96 4.113,97.16 14.398,153.6 10.285,56.44 38.398,105.6 38.398,105.6 L 191,2225.73 c 0,0 -24.332,-38.58 -60,-91.2 -35.668,-52.62 -24.562,-131.31 -26.398,-182.4 -1.836,-51.09 -24.0004,-81.6 -24.0004,-81.6 0,0 22.5784,-49.61 57.5974,-55.2 35.02,-5.58 55.199,-14.4 55.199,-14.4 0,0 -12.078,129.04 -4.796,180 M 983,1952.13 c 39.82,27.04 91.2,-2.4 91.2,-2.4 0,0 13.87,35.58 26.4,72 12.53,36.42 -10.91,20.55 -26.4,16.8 -15.49,-3.75 -34.97,2.13 -60,55.2 -25.028,53.07 -23.809,140.62 -31.2,187.2 -7.391,46.58 -50.398,64.8 -50.398,64.8 -43.141,-54.64 -96,-36 -96,-36 30.929,-35.81 52.859,-80.26 76.796,-151.2 23.942,-70.94 43.204,-139.2 43.204,-139.2 23.183,-19.7 26.398,-67.2 26.398,-67.2 m -110.398,487.2 c 0,0 70.347,-57.59 -4.801,-105.6 0,0 56.621,12.38 52.801,64.8 -3.825,52.42 -177.094,109.31 -280.801,120 -156.438,16.12 -227.512,-27.26 -336,-100.8 -108.488,-73.54 -179.692,-172.4 -285.6018,-79.2 0,0 -2.6172,-80.31 93.6018,-88.8 51.058,-4.51 83.711,4.08 115.683,12.67 28.282,7.6 56.028,15.19 95.516,13.73 0,0 28.152,60.54 -36,91.2 0,0 95.188,-36.12 60,-86.4 0,0 71.973,-9.59 129.602,-2.4 0,0 50.148,114.01 -55.204,182.4 0,0 130.868,-54.45 81.602,-175.2 0,0 82.652,13.84 153.602,28.8 70.949,14.97 57.597,148.8 57.597,148.8 0,0 57.117,-78.48 0,-134.4 0,0 58.34,23.29 86.403,14.4 28.058,-8.89 126.531,35.67 72,96" /><path
         id="path78"
         style="fill:#100f0d;fill-opacity:1;fill-rule:nonzero;stroke:none"
         d="m 599.715,1329.04 c -61.652,0 -99.113,15.89 -99.113,15.89 l -112.801,136.8 112.801,-136.8 c 0,0 37.461,-15.89 99.113,-15.89 43.613,0 99.328,7.94 162.484,35.09 0,0 28.332,68.9 62.403,100.8 31.199,29.22 53.503,69.23 57.046,75.78 l 0.551,1.02 -0.551,-1.02 c -3.543,-6.55 -25.847,-46.56 -57.046,-75.78 -34.071,-31.9 -62.403,-100.8 -62.403,-100.8 -63.156,-27.15 -118.871,-35.09 -162.484,-35.09 m 391.57,105.87 c -20.871,0 -44.234,2.5 -70.344,8.34 26.09,-5.84 49.45,-8.33 70.313,-8.33 77.576,0 120.696,34.52 142.066,60.22 -21.34,-25.69 -64.45,-60.23 -142.035,-60.23 m 53.235,230.96 c 1.69,31.83 8.08,43.86 8.08,43.86 v 0 c 0,0 -6.34,-12.09 -8.04,-43.77 -0.01,-0.03 -0.03,-0.06 -0.04,-0.09 m 63.31,115.95 c 0.01,0 0.01,0 0.01,0.01 0,-0.01 0,-0.01 -0.01,-0.01 m 0.04,0.09 c 0,0 0,0.01 0,0.01 0,0 0,-0.01 0,-0.01 m -968.819,466.58 c -8.5,0 -17.543,0.39 -27.25,1.24 -91.2424,8.06 -93.6057,80.68 -93.6057,88.18 0,-7.5 2.3633,-80.12 93.6057,-88.18 9.707,-0.85 18.75,-1.24 27.25,-1.24 36.203,0 62.539,6.96 88.433,13.91 25.895,6.96 51.348,13.91 85.766,13.91 3.172,0 6.418,-0.06 9.75,-0.18 v 0 0 c -3.332,0.12 -6.578,0.18 -9.75,0.18 -34.418,0 -59.871,-6.95 -85.766,-13.91 -25.894,-6.95 -52.23,-13.91 -88.433,-13.91 m 288.961,27.37 c -42.938,0 -81.012,5.07 -81.012,5.07 v 0 c 0,0 38.074,-5.07 81.012,-5.07 16.097,0 32.875,0.71 48.59,2.67 v 0 0 c -15.715,-1.96 -32.493,-2.67 -48.59,-2.67 m 48.59,2.67 v 0 0 m 0,0.01 v 0 0 m 0.003,0 v 0 0 M 347,2280.93 c 0.031,0.05 0.063,0.09 0.094,0.14 -0.031,-0.05 -0.063,-0.09 -0.094,-0.14 m 0.102,0.14 c 0.011,0.02 0.023,0.04 0.035,0.06 -0.012,-0.02 -0.024,-0.04 -0.035,-0.06 m 0.05,0.08 c 0.012,0.01 0.02,0.03 0.032,0.04 -0.008,-0.01 -0.024,-0.03 -0.032,-0.04 m 0.051,0.07 c 0.016,0.02 0.027,0.04 0.043,0.07 -0.012,-0.02 -0.031,-0.05 -0.043,-0.07 m 0.051,0.07 c 0.012,0.03 0.027,0.05 0.043,0.07 -0.016,-0.02 -0.027,-0.04 -0.043,-0.07 m 0.047,0.07 c 8.351,12.18 9.047,23.51 5.355,33.7 0.012,0 0.02,0 0.032,0 3.687,-10.19 2.964,-21.52 -5.387,-33.7 M 503,2285.73 c 0.031,0.07 0.063,0.15 0.094,0.23 -0.031,-0.08 -0.063,-0.16 -0.094,-0.23 m 0.125,0.31 c 0.02,0.05 0.047,0.11 0.066,0.16 -0.019,-0.05 -0.046,-0.11 -0.066,-0.16 m 0.105,0.26 c 0.024,0.06 0.047,0.12 0.075,0.18 -0.028,-0.06 -0.051,-0.12 -0.075,-0.18 m 0.11,0.27 c 0.019,0.05 0.043,0.1 0.062,0.15 -0.019,-0.05 -0.043,-0.1 -0.062,-0.15 m 0.094,0.23 c 0.027,0.07 0.054,0.14 0.082,0.21 -0.028,-0.07 -0.055,-0.13 -0.082,-0.21 m 0.105,0.27 c 0.031,0.08 0.063,0.15 0.094,0.23 -0.031,-0.07 -0.063,-0.16 -0.094,-0.23 m 0.094,0.23 c 4.215,10.62 7.019,20.72 8.66,30.31 0.004,0 0.008,0 0.012,0 -1.637,-9.59 -4.457,-19.69 -8.672,-30.31 m 153.09,27.26 c 0.015,0 0.031,0 0.043,0.01 -0.016,-0.01 -0.028,-0.01 -0.043,-0.01 m 0.129,0.03 c 0.015,0 0.027,0 0.046,0 -0.015,0 -0.031,0 -0.046,0 m 0.164,0.03 c 0.007,0 0.023,0.01 0.031,0.01 -0.012,0 -0.02,-0.01 -0.031,-0.01 m 0.121,0.02 c 0.023,0.01 0.035,0.01 0.054,0.02 -0.015,-0.01 -0.035,-0.01 -0.054,-0.02 m 0.129,0.04 c 0.011,0 0.039,0 0.05,0.01 -0.015,-0.01 -0.035,-0.01 -0.05,-0.01 m 0.168,0.03 c 0.011,0 0.023,0.01 0.035,0.01 -0.012,0 -0.024,-0.01 -0.035,-0.01 m 0.121,0.03 c 0.019,0.01 0.035,0.01 0.05,0.01 -0.015,0 -0.035,0 -0.05,-0.01 m 0.129,0.03 c 0.019,0 0.031,0.01 0.046,0.01 -0.015,0 -0.031,-0.01 -0.046,-0.01 m 0.164,0.04 c 0.011,0 0.023,0 0.039,0.01 -0.016,-0.01 -0.028,-0.01 -0.039,-0.01 m 0.125,0.03 c 0.015,0 0.031,0 0.043,0.01 -0.012,-0.01 -0.028,-0.01 -0.043,-0.01 m 0.152,0.04 c 0.004,0 0.008,0 0.016,0 -0.008,0 -0.012,0 -0.016,0 m 0.141,0.03 c 0.011,0 0.015,0 0.027,0 -0.012,0 -0.02,0 -0.027,0 m 0.129,0.03 c 0.007,0 0.019,0 0.027,0.01 -0.008,-0.01 -0.016,-0.01 -0.027,-0.01 m 0.285,0.07 c 0.004,0 0.011,0 0.019,0 -0.008,0 -0.011,0 -0.019,0 m 0.133,0.03 c 0.007,0 0.011,0.01 0.015,0.01 -0.004,0 -0.008,-0.01 -0.015,-0.01 m 55.386,13.89 v 0 c 0,0 41.141,16.42 70.942,16.42 5.687,0 10.961,-0.6 15.461,-2.02 0.863,-0.27 1.796,-0.49 2.785,-0.67 -0.992,0.18 -1.922,0.4 -2.785,0.67 -4.5,1.42 -9.774,2.02 -15.461,2.02 -29.801,0 -70.942,-16.42 -70.942,-16.42 m 0,0 c 0.039,0.03 0.074,0.07 0.11,0.11 -0.036,-0.04 -0.075,-0.08 -0.11,-0.11 m 0.141,0.14 c 0.035,0.03 0.066,0.06 0.098,0.09 -0.036,-0.03 -0.063,-0.06 -0.098,-0.09 m 0.125,0.12 c 0.027,0.03 0.058,0.06 0.09,0.09 -0.032,-0.03 -0.063,-0.06 -0.09,-0.09 m 0.133,0.13 c 0.023,0.03 0.047,0.05 0.074,0.07 -0.024,-0.02 -0.051,-0.05 -0.074,-0.07 m 0.125,0.13 c 0.027,0.02 0.054,0.05 0.078,0.07 -0.028,-0.02 -0.047,-0.05 -0.078,-0.07 m 0.121,0.12 c 0.023,0.02 0.047,0.04 0.07,0.07 -0.023,-0.03 -0.047,-0.05 -0.07,-0.07 m 0.136,0.13 c 0.024,0.02 0.043,0.05 0.067,0.07 -0.027,-0.03 -0.043,-0.04 -0.067,-0.07 m 0.114,0.12 c 0.019,0.02 0.039,0.04 0.058,0.06 -0.019,-0.02 -0.035,-0.04 -0.058,-0.06 m 0.136,0.13 c 0.02,0.02 0.04,0.04 0.059,0.06 -0.019,-0.01 -0.043,-0.04 -0.059,-0.06 m 0.11,0.11 c 0.019,0.02 0.039,0.04 0.058,0.07 -0.019,-0.03 -0.039,-0.04 -0.058,-0.07 m 0.129,0.13 c 0.019,0.02 0.047,0.05 0.066,0.08 -0.023,-0.03 -0.047,-0.05 -0.066,-0.08 m 0.113,0.12 c 0.02,0.02 0.039,0.04 0.059,0.06 -0.02,-0.02 -0.039,-0.04 -0.059,-0.06 m 0.137,0.14 c 0.015,0.02 0.039,0.04 0.054,0.06 -0.015,-0.02 -0.039,-0.05 -0.054,-0.06 m 0.101,0.1 c 0.024,0.03 0.043,0.05 0.067,0.07 -0.024,-0.02 -0.047,-0.05 -0.067,-0.07 m 0.137,0.15 c 0.02,0.01 0.039,0.03 0.059,0.05 -0.02,-0.02 -0.043,-0.04 -0.059,-0.05 m 0.109,0.11 c 0.02,0.01 0.036,0.03 0.051,0.05 -0.015,-0.02 -0.031,-0.04 -0.051,-0.05 m 0.125,0.13 c 0.024,0.02 0.043,0.04 0.067,0.06 -0.024,-0.02 -0.043,-0.04 -0.067,-0.06 m 0.11,0.11 c 0.023,0.02 0.047,0.05 0.07,0.07 -0.023,-0.02 -0.047,-0.05 -0.07,-0.07 m 0.117,0.12 c 0.027,0.03 0.055,0.06 0.082,0.09 -0.027,-0.03 -0.059,-0.06 -0.082,-0.09 m 0.117,0.13 c 0.028,0.02 0.051,0.05 0.074,0.08 -0.019,-0.03 -0.05,-0.06 -0.074,-0.08 m 0.11,0.11 c 0.031,0.03 0.062,0.07 0.093,0.1 -0.027,-0.03 -0.062,-0.07 -0.093,-0.1 m 0.121,0.13 c 0.031,0.03 0.062,0.06 0.093,0.1 -0.031,-0.04 -0.062,-0.07 -0.093,-0.1 m 0.105,0.11 c 0.035,0.03 0.067,0.07 0.102,0.11 -0.032,-0.04 -0.067,-0.08 -0.102,-0.11 m 0.133,0.14 c 0.027,0.03 0.059,0.06 0.09,0.09 -0.031,-0.03 -0.059,-0.06 -0.09,-0.09 m 0.101,0.11 c 0.036,0.03 0.071,0.07 0.102,0.11 -0.031,-0.04 -0.07,-0.08 -0.102,-0.11 m 0.125,0.13 c 0.075,0.08 0.145,0.16 0.215,0.23 -0.07,-0.07 -0.14,-0.15 -0.215,-0.23 m 0.227,0.24 c 0.074,0.09 0.148,0.16 0.223,0.25 -0.075,-0.09 -0.149,-0.16 -0.223,-0.25 m 0.227,0.25 c 0.078,0.08 0.152,0.16 0.226,0.25 -0.074,-0.08 -0.152,-0.17 -0.226,-0.25 m 0.226,0.25 c 8.563,9.36 14.133,19.27 17.481,29.28 v 0 c -3.344,-10.01 -8.922,-19.92 -17.481,-29.28 m 149.891,0.96 v 0 0 0 m 0,0 c 0.047,0.03 0.094,0.06 0.14,0.09 -0.046,-0.03 -0.093,-0.06 -0.14,-0.09 m 0.16,0.1 c 12.648,8.11 21.078,16.48 26.484,24.81 0.028,0 0.051,0 0.075,0 -5.407,-8.33 -13.918,-16.71 -26.559,-24.81 m -846.2618,1.68 c -1.1601,0.98 -2.3281,1.99 -3.5,3.02 1.1289,-0.99 2.2305,-1.84 3.3516,-2.79 0.0508,-0.07 0.1015,-0.15 0.1484,-0.23 m 781.7498,7.14 c -0.011,0 -0.023,0 -0.031,0.01 0.012,-0.01 0.02,-0.01 0.031,-0.01" /><path
         id="path80"
         style="fill:#d04e36;fill-opacity:1;fill-rule:nonzero;stroke:none"
         d="m 599.715,1329.04 c -61.652,0 -99.113,15.89 -99.113,15.89 l -112.801,136.8 64.801,-122.4 c -32.133,12.36 -61.918,32.26 -96,69.6 -34.086,37.34 -89.071,126.12 -115.204,189.6 -26.117,63.45 -28.796,225.44 -28.796,225.6 v 0 c 8.406,-27.43 48,-36 48,-36 v 0 0 c -19.704,17.47 -26.356,38.27 -26.36,58.4 -0.004,41.86 28.758,80.8 28.758,80.8 v 0 0 c -47.074,-4.03 -52.801,-60 -52.801,-60 0,0 3.594,57.32 12,196.8 8.41,139.48 74.403,163.2 74.403,163.2 248.543,4.48 389.652,39.9 439.199,60 18.617,7.56 29.84,12.6 39.344,12.6 15.781,0 26.808,-13.93 59.054,-53.4 51.664,-63.24 93.602,-235.2 93.602,-235.2 -9.418,4.51 -18.985,6.17 -27.985,6.17 -25.496,0 -46.418,-13.37 -46.418,-13.37 v 0 0 c 5.008,0.48 9.77,0.7 14.309,0.7 92.137,0 90.02,-94.33 100.895,-154.3 10.472,-57.76 31.728,-90.42 31.728,-154.75 0,-5.75 -0.17,-11.75 -0.529,-18.05 -6.211,-108 -91.711,-211.13 -117.602,-242.4 -25.89,-31.27 -84,-69.6 -84,-69.6 l 83.449,154.98 0.551,1.02 -0.551,-1.02 v 0 l 0.551,1.02 -0.551,-1.02 c -3.543,-6.55 -25.847,-46.56 -57.046,-75.78 -34.071,-31.9 -62.403,-100.8 -62.403,-100.8 -63.156,-27.15 -118.871,-35.09 -162.484,-35.09 m -310.317,599.09 c 0,0 -58.496,-51.47 -9.597,-105.6 27.129,-30.03 48.226,-117.03 55.199,-182.4 6.973,-65.36 84.82,-233.88 196.801,-259.2 25.48,-5.76 49.746,-8.62 72.82,-8.62 78.336,0 142.836,32.98 193.578,97.42 65.692,83.42 110.403,156 110.403,156 L 875,1493.73 c 0,0 82.004,79.1 98.398,156 16.399,76.9 -33.625,155.17 -28.796,216 4.824,60.83 -3.258,128.18 -60,144 -11.082,3.09 -20.481,4.33 -28.446,4.33 -32.824,0 -41.156,-21.13 -41.156,-21.13 0,0 -33.711,-22.99 -84.312,-22.99 -13.93,0 -29.145,1.75 -45.29,6.19 0,0 -20.882,-47.31 12,-79.2 32.883,-31.89 103.204,-36 103.204,-36 0,0 -22.789,-14.71 -46.079,-14.71 -7.21,0 -14.476,1.41 -21.121,5.11 0,0 -14.211,-40.48 9.598,-57.6 7.43,-5.34 14.723,-6.99 21.66,-6.99 5.606,0 10.985,1.08 16.012,2.15 5.027,1.09 9.703,2.16 13.918,2.16 3.062,0 5.883,-0.57 8.41,-2.12 11.77,-7.23 11,-89.66 -27.281,-89.66 -6.563,0 -14.231,2.43 -23.117,8.06 0,0 28.421,-36.9 53.109,-36.9 4.043,0 7.988,1 11.687,3.3 0,0 -13.644,-101.51 -64.796,-165.6 -37.45,-46.91 -115.461,-68.49 -172.309,-68.49 -20.809,0 -38.789,2.89 -50.891,8.49 -45.175,20.9 -91.082,67.1 -96.004,172.8 0,0 53.821,7.57 50.403,62.4 0,0 -33.672,-28.04 -60.571,-28.04 -6.878,0 -13.316,1.84 -18.628,6.44 -26.106,22.61 -15.247,57.97 7.199,67.2 22.445,9.24 -24.332,25.62 -12,86.4 12.332,60.78 43.199,115.2 43.199,115.2 0,0 -44.941,-16.48 -91.602,-16.48 -21.753,0 -43.875,3.58 -62,14.08 M 533.98,1612.04 c -17.453,-16.47 -35.781,-17.51 -35.781,-17.51 11.121,-39.94 37.071,-52.61 78.485,-52.61 26.601,0.01 59.586,5.23 99.117,11.81 101.066,16.82 110.398,86.4 110.398,86.4 0,0 -20.781,-5.62 -45.312,-5.62 -14.352,0 -29.985,1.92 -43.489,8.02 -7.457,3.37 -13.824,7.2 -19.625,11.03 -11.085,17.4 -33.898,30.67 -63.066,30.67 -4.305,0 -8.742,-0.29 -13.309,-0.9 -46.066,-6.13 -71.472,-42.13 -67.418,-71.29 m -4.148,154.91 c -3.086,0 -6.383,-0.59 -10.031,-2.02 -20.824,-8.13 -60,-64.8 -60,-64.8 0,0 41.574,30.31 55.199,38.4 8.43,5.01 20.578,7.27 36.344,7.27 9.719,0 20.808,-0.86 33.258,-2.47 3.968,-0.51 7.789,-0.76 11.472,-0.76 26.61,0 46.082,12.66 62.926,27.16 2.957,2.54 6.82,3.62 11.25,3.62 24.316,0 65.551,-32.42 65.551,-32.42 0,0 -29.367,26.47 -43.199,38.4 -7.305,6.3 -16.082,10.13 -25.309,10.13 -8.246,0 -16.852,-3.06 -25.094,-10.13 -16.734,-14.37 -40.015,-26.47 -64.051,-26.47 -1.05,0 -2.097,0.02 -3.148,0.07 -20.734,0.93 -30.648,14.02 -45.168,14.02 M 455,1832.13 c -26.547,-28.11 -21.602,-64.8 -21.602,-64.8 l 45.602,48 -24,16.8 m 73.711,-1.77 c -6.395,0 -11.996,-0.76 -16.109,-3.03 -12.188,-6.72 -57.602,-57.6 -57.602,-57.6 0,0 44.926,29.34 62.402,40.8 4.184,2.74 8.43,3.82 12.735,3.82 13.668,0 27.906,-10.84 42.465,-13.42 2.238,-0.39 4.433,-0.58 6.574,-0.58 16.164,0 29.347,10.53 36.625,19.78 5.64,7.17 15.398,9.46 25.543,9.46 17.828,0 36.855,-7.06 36.855,-7.06 0,0 -27.816,26.44 -45.597,28.8 -0.758,0.1 -1.532,0.15 -2.313,0.15 -8.742,0 -18.902,-6.04 -29.277,-12.07 -10.383,-6.04 -20.981,-12.08 -30.614,-12.08 -0.066,0 -0.132,0 -0.199,0 -13.355,0.12 -28.941,3.03 -41.488,3.03 m -25.273,79.85 c 2.082,0 4.339,-0.38 6.761,-1.28 14.117,-5.23 18.289,-24.53 30.098,-24.53 1.098,0 2.262,0.17 3.504,0.53 14.621,4.23 4.547,30.41 24,40.8 2.773,1.48 5.922,2.14 9.289,2.14 20.226,0 48.164,-23.82 48.308,-35.74 0.032,-2.41 0.614,-3.47 1.473,-3.47 4.078,0 14.387,23.93 0.93,39.47 -16.285,18.81 -51.836,58.26 -52.801,141.6 -0.965,83.34 40.801,177.6 40.801,177.6 0,0 -71.992,-24.08 -120.91,-24.08 -8.575,0 -16.446,0.74 -23.09,2.48 0,0 50.672,-47.1 62.398,-120 11.731,-72.9 -4.84,-152 -19.199,-163.2 -14.359,-11.21 -30.363,-18.21 -28.801,-43.2 0,0 6.09,10.88 17.239,10.88 m -124.766,291.52 c -0.16,0 -0.313,0 -0.473,0 -44.633,-0.35 -67.941,-48.68 -88.801,-93.6 -20.855,-44.92 -24.406,-84.09 7.204,-100.8 0,0 -1.512,-17.03 9.597,-45.6 6.059,-15.57 24.688,-22.25 46.262,-22.25 17.992,0 38.031,4.65 54.539,12.65 36.297,17.61 45.602,74.4 45.602,74.4 0,0 13.543,10.2 7.199,33.6 0,0 0.742,-0.24 1.894,-0.24 4.668,0 16.106,3.91 12.504,43.44 -4.472,49.11 -51.039,98.4 -95.527,98.4 m 249.129,-165.6 c 0,0 45.34,-40.96 97.887,-40.97 7.269,0 14.667,0.79 22.113,2.57 61.258,14.68 54.328,43.8 45.597,64.8 0,0 29.786,26.41 2.403,55.2 -27.383,28.79 15.605,32.08 -38.403,79.2 -13.812,12.05 -29.406,16.87 -45.148,16.87 -45.801,0 -92.887,-40.74 -101.25,-62.47 -11.07,-28.76 -10.055,-115.26 15.613,-115.26 0.391,0 0.785,0.02 1.188,0.06 M 247.086,2015.8 c 12.039,0 30.312,-13.27 30.312,-13.27 -31.23,26.55 -14.398,72 -14.398,72 -33.074,-19.2 -24,-62.4 -24,-62.4 1.855,2.64 4.727,3.67 8.086,3.67 m 634.105,79.21 c -1.441,0 -2.734,-1.1 -3.793,-3.68 -7.39,-18.01 -55.199,-26.4 -55.199,-26.4 10.477,-13.09 26.512,-16.89 41.602,-16.89 20.902,0 40,7.29 40,7.29 0,0 -13.961,39.68 -22.61,39.68 m -28.398,29.23 c 7.824,0 15.82,-2.23 22.207,-8.91 0,0 8.371,30.15 -12,48 -2.434,2.13 -4.863,3.07 -7.262,3.07 -17.691,0 -33.539,-51.07 -33.539,-51.07 0,0 14.949,8.91 30.594,8.91 m -73.98,160.77 c -18.934,0 -23.813,-23.28 -23.813,-23.28 0,0 52.078,-34.84 55.199,-117.6 0,0 17.11,47.54 36.567,47.54 2.187,0 4.41,-0.6 6.632,-1.94 0,0 -19.988,67.47 -55.199,88.8 -7.695,4.66 -14.09,6.48 -19.386,6.48 m -581.18,-719.37 c -13.086,0 -29.285,7.39 -47.434,31.29 -17.851,23.52 -24.078,52.22 -24.094,79.98 -0.023,46.08 17.067,89.57 26.497,102.42 2.714,3.71 5.925,5.22 9.371,5.22 15.715,0 36.226,-31.62 36.226,-31.62 0,0 3.875,-88.74 14.403,-120 10.527,-31.25 19.199,-48 19.199,-48 0,0 -13.02,-19.29 -34.168,-19.29 m 823.767,163.29 c 0,0 -9.97,76.63 -23.998,112.8 -14.019,36.14 -14.402,81.51 -14.402,81.6 v 0 c 7.867,4.4 15.375,7.27 22.57,9.02 -4.55,-11.99 -0.97,-28.22 -0.97,-28.22 0,0 11.89,12.34 28.54,12.34 6.67,0 14.11,-1.98 21.86,-7.54 27.07,-19.42 28.8,-93.6 28.8,-93.6 0,0 -15.06,34.37 -24.22,34.37 -0.77,0 -1.5,-0.24 -2.18,-0.77 -8.46,-6.63 13.74,-67.34 23.25,-67.34 0.26,0 0.51,0.05 0.75,0.14 5.55,2.16 20.21,14.03 29.25,33.13 1.19,-13.4 0.3,-25.05 -2.78,-32.94 0,0 0,-0.01 0,-0.01 -0.01,-0.03 -0.02,-0.05 -0.03,-0.08 0,-0.01 0,-0.01 -0.01,-0.01 -0.01,-0.03 -0.02,-0.06 -0.03,-0.09 v 0 c -16.79,-42.28 -86.4,-52.8 -86.4,-52.8" /><path
         id="path82"
         style="fill:#dc604d;fill-opacity:1;fill-rule:nonzero;stroke:none"
         d="m 533.98,1612.04 c -4.054,29.16 21.352,65.16 67.418,71.29 4.567,0.61 9.004,0.9 13.309,0.9 29.168,0 51.981,-13.27 63.066,-30.67 -16.824,11.12 -28.918,22.25 -49.277,22.25 -7.055,0 -15.109,-1.34 -24.695,-4.48 -46.77,-15.34 -40.446,-20.68 -60,-48 -3.153,-4.4 -6.473,-8.13 -9.821,-11.29 m -181.519,327.44 c -21.574,0 -40.203,6.68 -46.262,22.25 -11.109,28.57 -9.597,45.6 -9.597,45.6 -31.61,16.71 -28.059,55.88 -7.204,100.8 20.86,44.92 44.168,93.25 88.801,93.6 0.16,0 0.313,0 0.473,0 44.488,0 91.055,-49.29 95.527,-98.4 3.602,-39.53 -7.836,-43.44 -12.504,-43.44 -1.152,0 -1.894,0.24 -1.894,0.24 6.344,-23.4 -7.199,-33.6 -7.199,-33.6 0,0 -9.305,-56.79 -45.602,-74.4 -16.508,-8 -36.547,-12.65 -54.539,-12.65 m 62.23,70.47 c -10.839,0 -40.328,-3.34 -67.691,-36.22 -7.137,-8.58 1.586,-14.53 15.18,-14.53 20.222,0 51.218,13.18 56.82,50.53 0,0 -1.551,0.22 -4.309,0.22 m -39.617,76.6 c -0.551,0 -1.113,-0.01 -1.676,-0.02 -41.351,-0.95 -36,-45.6 -36,-45.6 16.079,11.93 40.27,14.89 60.344,14.89 19.836,0 35.656,-2.89 35.656,-2.89 0,0 -18.136,33.62 -58.324,33.62 m 350.614,-91.39 c -52.547,0.01 -97.887,40.97 -97.887,40.97 -0.403,-0.04 -0.797,-0.06 -1.188,-0.06 -25.668,0 -26.683,86.5 -15.613,115.26 8.363,21.73 55.449,62.47 101.25,62.47 15.742,0 31.336,-4.82 45.148,-16.87 54.008,-47.12 11.02,-50.41 38.403,-79.2 27.383,-28.79 -2.403,-55.2 -2.403,-55.2 8.731,-21 15.661,-50.12 -45.597,-64.8 -7.446,-1.78 -14.844,-2.57 -22.113,-2.57 m 23.925,59.16 c -25.09,0 -64.215,-10.99 -64.215,-10.99 23.161,-18.53 51.997,-27.04 69.926,-27.04 6.254,0 11.18,1.04 14.074,3.04 11.211,7.76 13.891,27.55 -7.199,33.6 -3.414,0.98 -7.738,1.39 -12.586,1.39 m -40.59,60.81 c 41.282,0 79.579,-23.8 79.579,-23.8 0,0 5.621,30.51 -33.602,43.2 -5.203,1.68 -10.547,2.42 -15.902,2.42 -35.004,0 -70.496,-31.22 -70.496,-31.22 12.961,6.83 26.851,9.4 40.421,9.4" /><path
         id="path84"
         style="fill:#d98618;fill-opacity:1;fill-rule:nonzero;stroke:none"
         d="m 235.406,1346.64 c -18.988,0 -39.66,6.15 -61.207,22.29 0,0 67.43,8.45 67.395,80.02 -0.012,23.49 -7.285,53.77 -26.594,92.78 l 24,12 c 0,0 62.305,-104.31 100.801,-144 0,0 -43.578,-63.1 -104.395,-63.09 m 37.196,96.69 c -15.168,-60.66 -55.204,-69.6 -55.204,-69.6 3.473,-0.63 6.915,-0.92 10.313,-0.92 38.457,0 71.289,36.92 71.289,36.92 l -26.398,33.6 m 718.652,-8.41 c -20.863,0 -44.223,2.49 -70.313,8.33 -0.113,0.03 -0.226,0.06 -0.339,0.08 v 0 c 0,0 11.808,31.98 40.8,64.8 28.989,32.82 60.688,129.38 67.198,189.6 l 24,12 c 0,0 -6.39,-12.03 -8.08,-43.86 -20.53,-48.33 -42.85,-131.71 -47.118,-160.14 -2.25,-14.96 18.228,-23.23 46.538,-23.23 31.75,0 73.35,10.41 103.75,33.45 -2.77,-4.99 -7.41,-12.43 -14.37,-20.81 -21.37,-25.7 -64.49,-60.22 -142.066,-60.22 m -797.856,366.01 c 0,0 -20.179,8.82 -55.199,14.4 -35.019,5.59 -57.5974,55.2 -57.5974,55.2 0,0 22.1644,30.51 24.0004,81.6 0.164,4.59 0.222,9.41 0.222,14.4 0,14.12 -0.492,29.71 -0.492,45.89 -0.004,41.82 3.262,87.58 26.668,122.11 35.668,52.62 60,91.2 60,91.2 l 50.398,14.4 c 0,0 -28.113,-49.16 -38.398,-105.6 -10.285,-56.44 -7.117,-102.64 -14.398,-153.6 -1.688,-11.79 -2.336,-27.77 -2.336,-45.36 0,-58.42 7.132,-134.64 7.132,-134.64 m 9.602,396 -38.398,-40.8 c -37.918,-56.87 -33.516,-116.86 -26.403,-189.6 7.114,-72.74 -19.199,-81.6 -19.199,-81.6 25.832,-29.22 50.402,-31.2 50.402,-31.2 -2.507,39.28 3.395,159 4.797,220.8 1.406,61.8 28.801,122.4 28.801,122.4 m 871.2,-247.2 c 0,0 -24.13,13.83 -52.13,13.83 -12.86,0 -26.539,-2.92 -39.07,-11.43 0,0 -3.215,47.5 -26.398,67.2 0,0 -19.262,68.26 -43.204,139.2 -23.937,70.94 -45.867,115.39 -76.796,151.2 0,0 8.695,-3.07 21.914,-3.07 19.367,0 48.445,6.59 74.086,39.07 0,0 17.613,-7.52 32.238,-25.12 -11.375,-15.95 -30.25,-33.54 -61.039,-42.08 0,0 36.41,-79.79 43.199,-141.6 6.789,-61.8 48,-151.2 48,-151.2 0,0 2.16,-0.14 5.89,-0.14 19.23,0 80.2,3.68 102.97,48.95 -0.42,-3.31 -1.41,-7.43 -3.26,-12.81 v 0 c -12.53,-36.42 -26.4,-72 -26.4,-72 m -935.149,298.76 c -8.5,0 -17.543,0.39 -27.25,1.24 -91.2424,8.06 -93.6057,80.68 -93.6057,88.18 0,0.41 0.0039,0.62 0.0039,0.62 v 0 c 1.1719,-1.03 2.3399,-2.04 3.5,-3.02 25.5821,-39.6 47.0664,-56.65 85.9918,-56.65 14.555,0 31.551,2.39 52.11,6.87 50.64,11.05 112.715,24.52 168.851,28.31 2.223,-20.64 -5.613,-37.82 -5.652,-37.91 v 0 c -3.332,0.12 -6.578,0.18 -9.75,0.18 -34.418,0 -59.871,-6.95 -85.766,-13.91 -25.894,-6.95 -52.23,-13.91 -88.433,-13.91 m 288.961,27.37 c -42.938,0 -81.012,5.07 -81.012,5.07 v 0 c 0.031,0.05 0.063,0.09 0.094,0.14 0.004,0 0.008,0 0.008,0 0.011,0.02 0.023,0.04 0.035,0.06 0.004,0 0.011,0.01 0.015,0.02 0.008,0.01 0.024,0.03 0.032,0.04 0.004,0.01 0.011,0.02 0.019,0.03 0.012,0.02 0.031,0.05 0.043,0.07 0,0 0.004,0 0.008,0 0.016,0.03 0.027,0.05 0.043,0.07 h 0.004 c 8.351,12.18 9.074,23.51 5.387,33.7 1.621,0.02 3.23,0.03 4.835,0.03 19.582,0 37.973,-1.57 54.278,-5.36 7.898,-1.84 16.652,-2.65 26.09,-2.65 14.636,0 30.902,1.96 48.082,5.09 -3.453,-19.97 -9.188,-33.21 -9.368,-33.63 v 0 h -0.003 v 0 c 0,-0.01 0,-0.01 0,-0.01 v 0 0 0 c -15.715,-1.96 -32.493,-2.67 -48.59,-2.67 m 74.988,9.87 v 0 c 0.031,0.07 0.063,0.15 0.094,0.23 0.008,0.02 0.019,0.05 0.031,0.08 0.02,0.05 0.047,0.11 0.066,0.16 0.012,0.03 0.028,0.07 0.039,0.1 0.024,0.06 0.047,0.12 0.075,0.18 0.011,0.03 0.023,0.06 0.035,0.09 0.019,0.05 0.043,0.1 0.062,0.15 0.008,0.03 0.02,0.05 0.032,0.08 0.027,0.08 0.054,0.14 0.082,0.21 0.007,0.02 0.015,0.04 0.023,0.06 0.031,0.07 0.063,0.16 0.094,0.23 v 0 c 4.215,10.62 7.035,20.72 8.672,30.31 62.125,14.37 131.5,38.76 180.297,42.52 3.492,0.27 7.14,0.5 10.851,0.72 -8.215,-21.82 -21.926,-40.07 -44.625,-45.8 -0.004,0 -0.008,-0.01 -0.015,-0.01 -0.04,-0.01 -0.075,-0.02 -0.114,-0.03 -0.008,0 -0.015,0 -0.019,0 -0.086,-0.02 -0.172,-0.05 -0.258,-0.06 -0.008,-0.01 -0.02,-0.01 -0.027,-0.01 -0.032,-0.01 -0.071,-0.02 -0.102,-0.03 -0.012,0 -0.016,0 -0.027,0 -0.043,-0.01 -0.086,-0.02 -0.125,-0.03 -0.008,0 -0.012,0 -0.016,0 -0.039,-0.02 -0.074,-0.02 -0.109,-0.03 -0.012,-0.01 -0.028,-0.01 -0.043,-0.01 -0.028,-0.01 -0.059,-0.02 -0.086,-0.02 -0.016,-0.01 -0.028,-0.01 -0.039,-0.01 -0.039,-0.01 -0.078,-0.02 -0.118,-0.03 -0.015,0 -0.027,-0.01 -0.046,-0.01 -0.024,0 -0.051,-0.01 -0.079,-0.02 -0.015,0 -0.031,0 -0.05,-0.01 -0.028,-0.01 -0.055,-0.01 -0.086,-0.02 -0.012,0 -0.024,-0.01 -0.035,-0.01 -0.039,-0.01 -0.079,-0.01 -0.118,-0.02 -0.011,-0.01 -0.039,-0.01 -0.05,-0.01 -0.024,-0.01 -0.051,-0.02 -0.075,-0.02 -0.019,-0.01 -0.031,-0.01 -0.054,-0.02 -0.032,0 -0.059,-0.01 -0.09,-0.01 -0.008,0 -0.024,-0.01 -0.031,-0.01 -0.039,-0.01 -0.078,-0.02 -0.118,-0.03 -0.019,0 -0.031,0 -0.046,0 -0.028,-0.01 -0.059,-0.02 -0.086,-0.02 -0.012,-0.01 -0.028,-0.01 -0.043,-0.01 -0.039,-0.01 -0.082,-0.02 -0.121,-0.03 v 0 C 585.652,2299.57 503,2285.73 503,2285.73 m 211.199,43.2 v 0 c 0.035,0.03 0.074,0.07 0.11,0.11 0.011,0.01 0.023,0.02 0.031,0.03 0.035,0.03 0.062,0.06 0.098,0.09 0.007,0.01 0.015,0.02 0.027,0.03 0.027,0.03 0.058,0.06 0.09,0.09 0.015,0.01 0.027,0.03 0.043,0.04 0.023,0.02 0.05,0.05 0.074,0.07 0.016,0.02 0.035,0.04 0.051,0.06 0.031,0.02 0.05,0.05 0.078,0.07 0.015,0.02 0.027,0.03 0.043,0.05 0.023,0.02 0.047,0.04 0.07,0.07 0.024,0.02 0.047,0.04 0.066,0.06 0.024,0.03 0.04,0.04 0.067,0.07 0.016,0.02 0.031,0.03 0.047,0.05 0.023,0.02 0.039,0.04 0.058,0.06 0.028,0.02 0.051,0.05 0.078,0.07 0.016,0.02 0.04,0.05 0.059,0.06 0.016,0.02 0.035,0.04 0.051,0.05 0.019,0.03 0.039,0.04 0.058,0.07 0.024,0.02 0.043,0.04 0.071,0.06 0.019,0.03 0.043,0.05 0.066,0.08 0.016,0.01 0.031,0.02 0.047,0.04 0.02,0.02 0.039,0.04 0.059,0.06 0.023,0.02 0.05,0.05 0.078,0.08 0.015,0.01 0.039,0.04 0.054,0.06 0.016,0.01 0.032,0.03 0.047,0.04 0.02,0.02 0.043,0.05 0.067,0.07 0.023,0.02 0.047,0.05 0.07,0.08 0.016,0.01 0.039,0.03 0.059,0.05 0.015,0.02 0.035,0.04 0.05,0.06 0.02,0.01 0.036,0.03 0.051,0.05 0.028,0.03 0.051,0.05 0.074,0.08 0.024,0.02 0.043,0.04 0.067,0.06 0.012,0.02 0.027,0.04 0.043,0.05 0.023,0.02 0.047,0.05 0.07,0.07 0.016,0.02 0.031,0.03 0.047,0.05 0.023,0.03 0.055,0.06 0.082,0.09 0.012,0.01 0.023,0.03 0.035,0.04 0.024,0.02 0.055,0.05 0.074,0.08 0.012,0.01 0.024,0.02 0.036,0.03 0.031,0.03 0.066,0.07 0.093,0.1 0.008,0.01 0.02,0.02 0.028,0.03 0.031,0.03 0.062,0.06 0.093,0.1 0.004,0 0.008,0 0.012,0.01 0.035,0.03 0.07,0.07 0.102,0.11 0.011,0.01 0.019,0.02 0.031,0.03 0.031,0.03 0.059,0.06 0.09,0.09 0.004,0.01 0.008,0.01 0.011,0.02 0.032,0.03 0.071,0.07 0.102,0.11 0.008,0.01 0.016,0.01 0.023,0.02 0.075,0.08 0.145,0.16 0.215,0.23 0.004,0.01 0.008,0.01 0.012,0.01 0.074,0.09 0.148,0.16 0.223,0.25 0.004,0 0.004,0 0.004,0 0.074,0.08 0.152,0.17 0.226,0.25 v 0 c 8.559,9.36 14.137,19.27 17.485,29.28 9.398,0.19 19.082,0.28 28.835,0.28 34.075,0 69.067,-1.05 96.344,-2.15 -16.777,-11.38 -37.429,-17.98 -51.363,-17.98 -2.082,0 -4.016,0.15 -5.762,0.45 -0.011,0 -0.019,0 -0.031,0.01 -0.012,0 -0.02,0 -0.031,0 -0.989,0.18 -1.922,0.4 -2.785,0.67 -4.5,1.42 -9.774,2.02 -15.461,2.02 -29.801,0 -70.942,-16.42 -70.942,-16.42 m 153.602,4.8 v 0 c 0.047,0.03 0.094,0.06 0.14,0.09 0.004,0 0.012,0.01 0.02,0.01 12.641,8.1 21.152,16.48 26.559,24.81 6.14,-0.32 10.765,-0.58 13.519,-0.74 -15.652,-18.67 -40.172,-24.15 -40.238,-24.17 v 0" /><path
         id="path86"
         style="fill:#602b19;fill-opacity:1;fill-rule:nonzero;stroke:none"
         d="m 848.602,2110.53 c -22.676,4.52 -36,-31.2 -36,-31.2 25.156,-5.59 58.671,26.68 36,31.2 z m -595.204,-120 c -18.015,-6.1 8.051,-28.19 36,-24 0,0 -17.98,30.1 -36,24 z m 364.801,69.6 c 25.348,62.73 88.801,79.2 88.801,79.2 -55.902,20.96 -74.102,-37.52 -86.398,-40.8 -12.301,-3.28 -2.286,67.57 69.597,91.2 46.352,15.24 100.801,-36 100.801,-36 -1.008,68.9 -72.059,110.19 -112.801,110.4 -40.738,0.21 -65.472,-37.94 -79.199,-93.6 -13.727,-55.65 12.328,-127.41 19.199,-110.4 z m 86.403,33.6 c -63.254,0.3 -76.801,-60 -76.801,-60 62.89,-67.08 96,-33.6 96,-33.6 -53.836,3.13 -72,40.8 -72,40.8 64.84,47.33 129.601,14.4 129.601,14.4 l 14.399,-36 c 16.765,26.52 4.801,48 4.801,48 0,0 -32.747,26.1 -96,26.4 z m -312,-148.8 c 57.015,12.82 69.597,84 69.597,84 -27.539,20.75 -109.422,15.59 -134.398,-12 -24.981,-27.59 -21.602,-62.4 -21.602,-62.4 37.735,76.86 124.801,62.4 124.801,62.4 6.945,-37.37 -38.398,-72 -38.398,-72 z m 220.8,-439.2 c -120.836,-11.05 -144.004,43.2 -144.004,43.2 0,0 5.571,-85.82 144.004,-76.8 138.43,9.03 158.399,110.4 158.399,110.4 0,0 -37.567,-65.75 -158.399,-76.8 z m -9.601,204 c -51.043,-1.34 -70.137,-35.22 -88.801,-60 -18.664,-24.78 -52.801,-33.6 -52.801,-33.6 80.438,-14.62 90.27,60.47 136.801,72 46.531,11.53 90.316,-30.33 129.602,-33.6 39.281,-3.26 60,7.2 60,7.2 0,0 -51.235,2.33 -84,16.8 -32.774,14.47 -49.758,32.54 -100.801,31.2 z m -2.403,7.2 c 55.204,10.04 64.801,43.2 64.801,43.2 0,0 -29.113,-23.99 -67.199,-26.4 -38.082,-2.41 -69.602,2.4 -69.602,2.4 0,0 16.801,-29.24 72,-19.2 z M 767,1762.53 c -17.094,-6.54 -35.852,9.2 -55.199,26.4 -19.352,17.2 -58.106,40.2 -76.801,26.4 -18.695,-13.8 -32.27,-36.06 -48,-33.6 -15.727,2.46 -44.699,30.52 -76.801,16.8 -32.097,-13.72 -46.312,-61.96 -60,-76.8 -13.683,-14.84 -28.215,-11.65 -40.801,-21.6 -12.582,-9.95 2.93,-31.58 19.204,-19.2 16.269,12.38 29.586,28.45 48,52.8 18.41,24.35 38.484,47.23 62.398,38.4 23.914,-8.83 61.758,-14.37 88.801,7.2 27.043,21.58 48.433,21.45 69.597,4.8 21.168,-16.65 60.555,-61.17 81.602,-50.4 21.047,10.77 5.094,35.34 -12,28.8 z m -283.199,45.6 c -12.258,-18.89 -38.403,-45.6 -38.403,-45.6 39.7,9.4 62.153,61.98 84,57.6 21.856,-4.38 41.875,-10.87 64.801,4.8 22.93,15.67 31.395,18.8 52.801,7.2 21.406,-11.6 60,-2.4 60,-2.4 0,0 -40.664,10.87 -60,26.4 -19.332,15.53 -31.742,1.5 -48,-9.6 -16.258,-11.09 -46.531,-12.2 -69.602,-9.6 -23.066,2.6 -33.339,-9.91 -45.597,-28.8 z m 160.801,100.8 c 0.203,38.66 -45.602,38.4 -45.602,38.4 0,0 23.148,-13.45 26.398,-38.4 3.254,-24.95 -19.199,-36 -19.199,-36 27.16,-9.4 33.602,7.2 33.602,7.2 39.277,-31.5 62.398,-14.4 62.398,-14.4 -32.035,-0.98 -57.597,43.2 -57.597,43.2 z m -55.204,-31.2 c 13.211,2.56 -7.113,37.9 -16.796,31.2 -9.688,-6.7 3.586,-33.76 16.796,-31.2 z M 515,1860.93 c 12.676,6.75 12.398,42.34 -2.398,36 -14.797,-6.34 -10.278,-42.75 2.398,-36 z m -45.602,33.6 c 0,0 -44.082,-9.78 -55.199,-100.8 0,0 31.055,65.57 52.801,79.2 0,0 -6.355,-39.27 31.199,-26.4 0,0 -17.679,11.9 -12,43.2 5.68,31.3 7,35.28 28.801,31.2 21.801,-4.07 38.398,16.8 38.398,16.8 0,0 -18.945,-8.48 -33.597,2.4 -14.653,10.89 -24,2.4 -24,2.4 0,0 18.293,37.61 19.199,86.4 0.906,48.79 -16.801,86.4 -16.801,86.4 0,0 3.836,-73.08 -9.597,-112.8 -13.434,-39.71 -23.922,-87.49 -19.204,-108 z m -117.597,244.8 c 42.926,13.6 95.769,14.65 108,-24 12.23,-38.65 2.398,-40.8 2.398,-40.8 0,0 -64.082,80.55 -124.801,16.8 0,0 46.129,23.01 76.801,0 30.672,-23.01 48.59,-46.9 60,-36 11.414,10.9 15.102,66.17 9.602,108 -5.5,41.83 -69.024,78.6 -122.403,57.6 -53.375,-20.99 -111.582,-70.65 -79.199,-158.4 0,0 26.672,63.2 69.602,76.8 z m 683.999,-235.2 c -28.91,3.32 -46.671,-46.84 -21.6,-67.2 25.07,-20.36 37.78,-55.74 16.8,-72 0,0 34.9,-4.07 33.6,26.4 -1.3,30.47 -35.6,44.17 -33.6,74.4 1.6,24.21 25.69,18.52 33.63,-2.92 -3.27,16.84 -10.96,39.27 -28.83,41.32 z m -859.198,-218.4 c 10.644,31.07 8.156,75.48 -14.403,69.6 -22.554,-5.88 -19.199,-76.8 -19.199,-76.8 0,0 25.043,58.66 19.199,31.2 -5.84,-27.45 -9.828,-68.64 4.801,-96 14.629,-27.35 36,-14.4 36,-14.4 -24.586,6.3 -37.047,55.33 -26.398,86.4" /><path
         id="path88"
         style="fill:#f5da3f;fill-opacity:1;fill-rule:nonzero;stroke:none"
         d="m 438.199,2194.53 c -44.465,29.65 -124.156,10.87 -144,-72 0,0 36.578,49.08 98.403,45.6 61.824,-3.48 76.796,-36 76.796,-36 0,0 13.266,32.75 -31.199,62.4 z m 235.199,45.6 c -55.582,-11.28 -59.996,-79.2 -59.996,-79.2 0,0 59.766,89.16 148.797,33.6 0,0 -33.215,56.88 -88.801,45.6" /><path
         id="path90"
         style="fill:#fbee85;fill-opacity:1;fill-rule:nonzero;stroke:none"
         d="m 469.398,2372.13 c 4.473,44.07 -60,67.2 -60,67.2 -61.851,-12.84 -93.597,-76.8 -93.597,-76.8 59.269,36.61 153.597,9.6 153.597,9.6 z M 683,2369.73 c 34.84,35.84 4.801,110.4 4.801,110.4 0,0 -33.805,-22.52 -79.199,-24 -45.399,-1.48 -139.204,2.4 -139.204,2.4 37.153,-16.59 57.602,-74.4 57.602,-74.4 92.418,67.75 156,-14.4 156,-14.4 z m 105.602,88.8 c -58.747,21.26 -57.602,16.8 -57.602,16.8 0,0 57.977,-54.11 28.801,-100.8 0,0 82.023,-8.89 98.398,12 16.375,20.9 -10.855,50.74 -69.597,72" /><path
         id="path92"
         style="fill:#fdf5ad;fill-opacity:1;fill-rule:nonzero;stroke:none"
         d="m 143,2141.73 c -38.551,-45.91 -33.344,-176.86 -33.602,-211.2 -0.253,-34.34 -19.1988,-60 -19.1988,-60 9.8358,-29.55 40.8008,-43.2 40.8008,-43.2 -17.75,13.31 -21.602,43.2 -21.602,43.2 0,0 5.586,12.68 14.403,38.4 8.816,25.72 0.058,61.26 2.398,127.2 2.344,65.94 16.801,105.6 16.801,105.6" /><path
         id="path94"
         style="fill:#fdf5ad;fill-opacity:1;fill-rule:nonzero;stroke:none"
         d="m 85.3984,2259.33 c 50.8866,-13.99 91.2036,0 91.2036,0 0,0 -93.77,-7.19 -148.8012,57.6 0,0 6.7148,-43.6 57.5976,-57.6" /><path
         id="path96"
         style="fill:#fdf5ad;fill-opacity:1;fill-rule:nonzero;stroke:none"
         d="m 327.801,2424.93 c -45.469,-37.85 -88.801,-72 -88.801,-72 53.254,13.32 252,151.2 252,151.2 -54.461,-4.81 -117.73,-41.34 -163.199,-79.2" /><path
         id="path98"
         style="fill:#fdf5ad;fill-opacity:1;fill-rule:nonzero;stroke:none"
         d="m 282.199,1366.53 c 0,0 -17.242,0.34 -45.597,7.2 0,0 62.867,40.2 0,144 0,0 48.683,-126.2 -43.204,-153.6 0,0 32.637,-20.43 88.801,2.4" /><path
         id="path100"
         style="fill:#8a8b8a;fill-opacity:1;fill-rule:nonzero;stroke:none"
         d="m 985.398,75.332 c 2.559,25.617 16.802,64.797 16.802,64.797 0,0 -18.911,-23.359 -28.798,-50.3985 -9.89,-27.0391 -9.175,-38.6094 9.598,-40.8008 18.78,-2.1914 40.8,0 40.8,0 0,0 -40.956,0.7812 -38.402,26.4023 z m -708,0 c -10.054,-16.8906 -4.796,-48 -4.796,-48 h 33.597 c 0,0 -10.648,7.3672 -12,28.7969 -1.347,21.4414 33.602,43.2031 33.602,43.2031 0,0 -40.344,-7.1015 -50.403,-24" /><path
         id="path102"
         style="fill:#f6dfa8;fill-opacity:1;fill-rule:nonzero;stroke:none"
         d="m 315.801,1263.33 112.801,-62.4 -91.204,74.4 19.204,72 -40.801,-84" /><path
         id="path104"
         style="fill:#f6dfa8;fill-opacity:1;fill-rule:nonzero;stroke:none"
         d="m 426.199,1148.13 -12,-45.6 c 0,0 85.727,-59.78 146.403,-96 l -127.204,100.8 -7.199,40.8" /><path
         id="path106"
         style="fill:#f6dfa8;fill-opacity:1;fill-rule:nonzero;stroke:none"
         d="m 354.199,550.531 c 0,0 -28.136,297.719 -28.801,381.598 -0.66,83.881 -4.867,162.311 -23.996,211.201 0,0 8.582,-121.22 4.797,-199.201 -3.781,-77.981 6.012,-153.879 14.403,-242.399 8.386,-88.519 19.199,-175.199 19.199,-175.199 l 50.398,16.801 -36,7.199" /><path
         id="path108"
         style="fill:#f6dfa8;fill-opacity:1;fill-rule:nonzero;stroke:none"
         d="m 49.3984,1006.53 c 0.0586,-13.901 62.2426,-89.542 91.2036,-122.401 28.961,-32.848 60,-64.797 60,-64.797 0,0 -127.7387,163.906 -132.0004,187.198 -4.2657,23.29 46.5624,93.09 96.0004,146.4 57.003,61.47 84,88.8 84,88.8 l 9.597,36 c 0,0 -103.734,-111.47 -148.801,-168 -45.0621,-56.53 -60.0542,-89.29 -59.9996,-103.2" /><path
         id="path110"
         style="fill:#f6dfa8;fill-opacity:1;fill-rule:nonzero;stroke:none"
         d="M 383,464.129 402.199,497.73 371,483.332 c 0,0 -3.691,-80.23 0,-187.203 3.691,-106.969 7.199,-151.199 7.199,-151.199 l 31.199,-9.598 -19.199,33.598 c 0,0 -8.457,238.582 -7.199,295.199" /><path
         id="path112"
         style="fill:#f6dfa8;fill-opacity:1;fill-rule:nonzero;stroke:none"
         d="m 992.602,180.93 c 0,0 -68.731,174.601 -153.602,223.199 0,0 102,-110.578 139.199,-232.797 l 14.403,9.598" /><path
         id="path114"
         style="fill:#f6dfa8;fill-opacity:1;fill-rule:nonzero;stroke:none"
         d="m 567.801,1515.33 c -76.02,10.05 -81.602,84 -81.602,84 l -16.801,-2.4 c 6.489,-92.8 98.403,-81.6 98.403,-81.6" /><path
         id="path116"
         style="fill:#f6dfa8;fill-opacity:1;fill-rule:nonzero;stroke:none"
         d="m 462.199,1695.33 -26.398,-19.2 c 0,0 31.605,4.92 48,16.8 16.39,11.89 -21.602,2.4 -21.602,2.4" /><path
         id="path118"
         style="fill:#f6dfa8;fill-opacity:1;fill-rule:nonzero;stroke:none"
         d="m 498.199,1856.13 c -6.211,15.98 0,55.2 0,55.2 0,0 -6.883,-5.93 -7.199,-24 -0.316,-18.07 7.199,-31.2 7.199,-31.2" /><path
         id="path120"
         style="fill:#f6dfa8;fill-opacity:1;fill-rule:nonzero;stroke:none"
         d="m 522.199,1968.93 c 6.395,13.69 22.535,66.88 -2.398,110.4 0,0 10.715,-71.54 -16.801,-124.8 0,0 12.805,0.71 19.199,14.4" /><path
         id="path122"
         style="fill:#f6dfa8;fill-opacity:1;fill-rule:nonzero;stroke:none"
         d="m 282.199,1556.13 c 44.731,-97.21 132,-163.2 132,-163.2 0,0 -95.074,129.94 -129.597,213.6 C 250.074,1690.2 251,1793.73 251,1793.73 l -26.398,16.8 c 0,0 1.468,-86.41 19.199,-163.2 8.433,-36.53 23.98,-59.87 38.398,-91.2" /><path
         id="path124"
         style="fill:#f6dfa8;fill-opacity:1;fill-rule:nonzero;stroke:none"
         d="m 467,1400.13 c 0,0 24.277,-40.34 45.602,-48 19.605,-7.04 72.031,-9.25 80.359,-9.55 -7.316,0.3 -48.621,3.15 -75.563,28.75 L 467,1400.13" /><path
         id="path126"
         style="fill:#f6dfa8;fill-opacity:1;fill-rule:nonzero;stroke:none"
         d="m 167,1589.73 c -16.629,27.38 -21.602,67.2 -21.602,67.2 l -12,26.4 c -0.644,-68.38 33.602,-93.6 33.602,-93.6" /><path
         id="path128"
         style="fill:#f6dfa8;fill-opacity:1;fill-rule:nonzero;stroke:none"
         d="m 215,716.129 19.199,12 -16.801,43.203 z" /></g></g></svg>