<?xml version="1.0" standalone="no"?>
<!DOCTYPE svg PUBLIC "-//W3C//DTD SVG 20010904//EN"
 "http://www.w3.org/TR/2001/REC-SVG-20010904/DTD/svg10.dtd">
<svg version="1.0" xmlns="http://www.w3.org/2000/svg"
 width="1280.000000pt" height="1225.000000pt" viewBox="0 0 1280.000000 1225.000000"
 preserveAspectRatio="xMidYMid meet">
<metadata>
Created by potrace 1.15, written by Peter Selinger 2001-2017
</metadata>
<g transform="translate(0.000000,1225.000000) scale(0.100000,-0.100000)"
fill="#000000" stroke="none">
<path d="M6970 11303 c37 -7 51 -24 15 -19 -17 3 -93 8 -170 11 -225 8 -457
-15 -690 -70 -55 -13 -111 -23 -125 -23 -14 0 -54 -11 -89 -26 -36 -14 -72
-26 -80 -26 -19 -1 -33 -8 -233 -122 -84 -47 -218 -121 -297 -163 -168 -88
-253 -146 -311 -212 -23 -27 -40 -40 -36 -30 10 31 -96 -90 -138 -156 -47 -76
-104 -197 -161 -342 -24 -60 -57 -143 -74 -183 -17 -40 -28 -79 -25 -87 10
-24 -15 -169 -42 -253 -28 -84 -52 -124 -28 -47 7 27 14 60 14 74 -1 20 -4 16
-17 -19 -8 -25 -19 -50 -24 -56 -5 -6 -15 -29 -23 -51 -8 -23 -26 -58 -39 -80
-15 -22 -27 -61 -31 -93 -4 -30 -14 -88 -22 -128 -15 -67 -15 -90 1 -197 5
-32 -3 -69 -39 -177 -31 -91 -46 -153 -46 -187 0 -30 21 -129 49 -235 58 -217
131 -527 131 -558 0 -12 -3 -18 -7 -15 -3 4 -12 -1 -19 -11 -12 -15 -13 -11
-14 32 0 56 -97 506 -112 521 -7 7 -8 3 -5 -10 29 -102 98 -443 107 -530 6
-60 18 -121 26 -135 7 -14 36 -93 63 -177 27 -83 64 -182 83 -220 43 -89 43
-87 28 -78 -9 6 -11 4 -6 -4 5 -7 11 -10 14 -7 7 8 52 -34 52 -47 0 -6 -8 -4
-18 4 -9 8 3 -6 29 -31 66 -64 106 -119 182 -250 123 -215 131 -237 135 -380
1 -69 5 -135 7 -147 6 -28 60 -60 148 -89 l72 -22 33 31 32 31 -1 -30 c-1 -45
-26 -201 -29 -179 -5 46 -18 -33 -19 -118 -1 -83 -3 -89 -28 -112 -44 -38 -60
-31 -27 13 28 36 28 37 4 21 -14 -9 -47 -45 -75 -80 -46 -58 -47 -69 -2 -31
16 14 17 13 17 -11 0 -34 -109 -197 -132 -197 -25 0 -22 26 8 79 30 52 23 47
-26 -19 -19 -25 -61 -76 -95 -115 -33 -38 -49 -61 -35 -52 28 19 40 21 40 7 0
-12 -179 -130 -288 -190 -45 -25 -82 -49 -82 -54 0 -11 -23 -29 -75 -60 -58
-35 -85 -41 -85 -21 0 10 -5 15 -12 12 -171 -75 -247 -100 -301 -98 -103 3
-413 -70 -768 -179 -141 -44 -262 -77 -344 -94 -24 -5 -26 -4 -12 4 9 6 17 16
17 22 0 21 -134 -3 -295 -52 -88 -27 -223 -60 -300 -74 -77 -14 -167 -34 -199
-46 -33 -11 -61 -18 -63 -16 -9 8 155 69 275 101 209 56 206 55 137 49 -33 -3
-86 -10 -119 -15 -32 -6 -61 -8 -64 -5 -3 3 3 6 13 6 10 0 16 2 13 5 -8 9
-187 -33 -280 -64 -78 -27 -458 -206 -458 -216 0 -2 35 12 77 31 237 110 453
200 453 188 0 -12 -659 -324 -683 -324 -7 0 3 14 21 30 18 17 29 30 24 30 -4
0 -12 -4 -17 -9 -6 -5 -41 -21 -80 -36 -38 -14 -89 -37 -113 -50 -24 -14 -48
-23 -52 -20 -5 3 -12 0 -16 -6 -4 -8 -3 -9 4 -5 25 15 10 -3 -15 -20 -27 -17
-28 -17 -13 2 9 11 3 9 -13 -6 -38 -34 -78 -121 -123 -270 -20 -69 -66 -205
-101 -303 -34 -99 -63 -181 -63 -184 0 -4 14 13 30 36 28 38 56 60 64 50 2 -2
-9 -47 -24 -99 -28 -97 -64 -180 -79 -180 -4 0 -14 -12 -21 -27 -8 -16 -36
-59 -64 -96 -27 -38 -64 -96 -82 -130 -40 -73 -44 -54 -9 39 16 41 20 62 11
55 -7 -6 -30 -54 -51 -107 -33 -83 -37 -102 -32 -152 6 -55 42 -155 86 -237
36 -68 26 -97 -69 -190 -78 -77 -136 -204 -191 -418 -16 -63 -35 -104 -81
-175 -86 -134 -125 -242 -157 -432 -18 -107 -32 -302 -25 -342 l6 -38 111 -1
c62 0 130 -4 152 -8 26 -5 54 -3 78 6 32 10 1151 13 6110 13 3339 0 6072 1
6073 3 2 2 -31 79 -72 171 -46 102 -80 193 -86 230 -16 97 -3 435 22 549 20
90 20 98 5 173 -9 44 -47 171 -85 284 -105 312 -197 676 -226 895 -4 28 -8 57
-9 65 -2 8 -15 103 -30 210 -36 266 -50 324 -93 411 -49 96 -106 181 -245 360
-63 81 -122 164 -132 185 -22 46 -55 167 -55 201 0 15 -4 22 -11 17 -6 -3 -8
-17 -4 -31 4 -16 2 -22 -5 -18 -6 4 -10 63 -10 156 0 142 -1 149 -20 149 -17
0 -20 7 -20 48 0 61 -26 293 -45 404 -27 157 -73 244 -126 236 -20 -2 -25 2
-27 26 -10 85 44 167 158 240 78 51 122 100 260 290 115 159 136 196 178 321
93 279 80 411 -51 536 l-52 50 3 117 c3 109 1 120 -20 152 -13 19 -59 62 -103
95 -47 36 -82 71 -86 85 -4 14 -5 77 -2 140 4 98 2 120 -14 150 -24 47 -71 76
-168 105 -96 30 -121 52 -165 147 -35 80 -36 89 -10 113 11 10 58 81 104 159
95 158 181 268 261 336 30 25 92 77 137 116 99 85 194 144 157 97 -26 -33 66
45 114 96 30 32 47 59 47 75 0 14 5 28 10 31 6 4 22 28 35 55 60 119 8 219
-140 270 -80 28 -164 26 -261 -6 -44 -14 -88 -34 -98 -44 -14 -14 4 -9 65 18
77 34 92 37 174 37 50 0 103 -6 119 -13 45 -20 27 -21 -42 -4 -90 22 -144 7
-340 -94 -354 -183 -466 -265 -746 -551 -114 -117 -212 -211 -216 -208 -10 6
-239 -233 -267 -279 -29 -48 -10 -36 21 12 37 58 140 166 144 152 3 -7 39 21
85 66 56 55 47 43 -33 -41 -62 -66 -131 -145 -153 -175 -51 -69 -118 -140
-127 -135 -4 2 -26 -16 -50 -40 -24 -25 -49 -45 -54 -45 -6 0 18 29 54 65 36
36 67 60 70 54 4 -5 19 7 35 28 l28 38 -26 -24 c-15 -14 -27 -21 -27 -16 0 5
-35 -25 -78 -66 -167 -160 -284 -262 -301 -263 -10 -1 -40 -25 -66 -54 -26
-28 -51 -49 -56 -46 -10 6 -164 -123 -233 -194 -21 -22 -35 -45 -32 -50 3 -6
-16 -41 -44 -77 -64 -84 -96 -147 -116 -227 -18 -75 -33 -414 -17 -405 6 4 13
-22 17 -68 9 -96 64 -297 110 -400 33 -74 50 -93 25 -28 -5 15 -6 24 -1 18 15
-17 121 -358 120 -390 0 -16 5 -52 12 -80 7 -27 16 -86 21 -130 6 -44 12 -103
15 -130 l6 -50 -56 -39 c-67 -46 -112 -103 -131 -170 -19 -62 -19 -94 -1 -138
19 -46 45 -198 51 -295 5 -98 -11 -78 -21 26 -4 41 -11 86 -15 100 -9 27 -6
-39 7 -151 6 -50 5 -58 -10 -58 -30 0 -328 70 -340 79 -6 5 -54 18 -106 28
-81 15 -90 19 -60 23 32 5 28 7 -35 19 -38 7 -83 15 -99 18 -51 9 -199 171
-403 443 -60 80 -144 191 -188 248 l-78 102 60 128 c73 153 94 208 132 355 33
122 54 239 71 387 7 52 20 133 30 180 23 108 34 187 25 178 -4 -4 -11 -22 -16
-40 -5 -20 -7 33 -3 137 3 119 9 179 20 199 11 24 14 93 15 360 0 194 4 323 9
311 l9 -20 2 20 c1 11 3 38 5 60 2 22 19 135 39 250 20 116 39 255 42 310 3
55 14 133 24 174 16 63 19 115 20 350 1 373 -5 409 -102 629 l-23 52 45 48
c122 128 162 202 163 302 1 54 -4 73 -28 114 -30 51 -97 123 -176 190 -25 20
-38 34 -30 30 31 -15 140 -106 170 -142 l31 -37 -18 34 c-34 63 -289 269 -393
317 -113 53 -154 74 -130 68 14 -3 63 -24 110 -45 104 -48 71 -18 -50 45 -84
44 -251 116 -267 116 -4 0 34 -21 85 -46 50 -24 92 -48 92 -53 0 -5 -32 4 -71
20 -39 16 -116 43 -172 60 -56 17 -140 44 -187 60 -47 15 -122 35 -167 45 -47
10 -83 23 -83 29 0 13 -89 30 -205 41 -82 7 -286 48 -346 69 -23 8 -60 14 -83
14 -27 -1 -33 -3 -16 -6z m-2532 -1910 c-30 -98 -39 -117 -34 -67 3 38 39 134
50 134 2 0 -5 -30 -16 -67z m6302 -646 c0 -1 -24 -25 -52 -52 l-53 -50 50 53
c46 48 55 57 55 49z m564 -277 c-15 -22 -28 -51 -29 -65 -2 -13 -6 -28 -9 -34
-9 -14 -36 -2 -36 16 0 14 85 123 96 123 2 0 -8 -18 -22 -40z m-5920 -2197
c22 -63 20 -66 -9 -13 -27 50 -29 60 -16 60 5 0 16 -21 25 -47z m4440 -674
c-4 -8 0 -9 15 -4 19 6 21 3 21 -33 0 -45 -25 -76 -41 -51 -11 18 -9 99 3 99
5 0 6 -5 2 -11z"/>
<path d="M7750 11174 c0 -7 52 -25 57 -20 2 2 -10 8 -26 14 -17 6 -31 9 -31 6z"/>
<path d="M8851 9454 c0 -11 3 -14 6 -6 3 7 2 16 -1 19 -3 4 -6 -2 -5 -13z"/>
<path d="M8702 8010 c0 -64 1 -70 9 -42 6 21 6 49 1 75 -9 39 -10 37 -10 -33z"/>
<path d="M8683 7460 c0 -25 2 -35 4 -22 2 12 2 32 0 45 -2 12 -4 2 -4 -23z"/>
<path d="M3175 4935 c-63 -13 -187 -54 -170 -55 26 -1 255 54 255 62 0 10 -11
9 -85 -7z"/>
<path d="M726 1100 c11 -4 92 -5 180 -1 l159 8 -180 1 c-106 0 -171 -3 -159
-8z"/>
<path d="M1850 1100 c0 -5 12 -10 26 -10 14 0 23 4 19 10 -3 6 -15 10 -26 10
-10 0 -19 -4 -19 -10z"/>
<path d="M1205 1090 l-70 -6 78 -2 c46 -1 77 2 77 8 0 6 -3 9 -7 8 -5 -1 -39
-4 -78 -8z"/>
<path d="M583 1083 c9 -2 25 -2 35 0 9 3 1 5 -18 5 -19 0 -27 -2 -17 -5z"/>
</g>
</svg>
