
<svg xmlns="http://www.w3.org/2000/svg" x="0px" y="0px"
width="48" height="48"
viewBox="0 0 172 172"
style=" fill:#000000;"><g fill="none" fill-rule="nonzero" stroke="none" stroke-width="1" stroke-linecap="butt" stroke-linejoin="miter" stroke-miterlimit="10" stroke-dasharray="" stroke-dashoffset="0" font-family="none" font-weight="none" font-size="none" text-anchor="none" style="mix-blend-mode: normal"><path d="M0,172v-172h172v172z" fill="none"></path><g><path d="M19.71824,111.57322l129.6462,-57.68425l2.91335,6.54779l-129.6462,57.68425z" fill="#e74c3c"></path><path d="M46.58333,32.25c0,7.16667 17.91667,10.75 28.66667,10.75c10.75,0 32.25,-17.91667 14.33333,-17.91667c-17.91667,0 -28.66667,7.16667 -43,7.16667z" fill="#ffca28"></path><path d="M103.91667,114.66667h-35.83333c0,0 -22.93333,4.65833 -35.475,18.99167c17.91667,20.06667 46.58333,29.025 73.81667,20.78333c13.25833,-3.94167 24.00833,-11.46667 32.60833,-20.78333c-12.18333,-13.975 -35.11667,-18.99167 -35.11667,-18.99167z" fill="#738d99"></path><path d="M80.26667,157.30833c1.79167,0 3.94167,0.35833 5.73333,0.35833c1.79167,0 3.94167,0 5.73333,-0.35833l12.18333,-42.64167h-35.83333z" fill="#ffffff"></path><path d="M68.08333,114.66667v-17.91667h35.83333v17.91667l-10.75,7.16667h-14.33333zM125.41667,75.25c0,3.94167 -3.225,7.16667 -7.16667,7.16667c-3.94167,0 -7.16667,-3.225 -7.16667,-7.16667c0,-3.94167 3.225,-7.16667 7.16667,-7.16667c3.94167,0 7.16667,3.225 7.16667,7.16667M60.91667,75.25c0,-3.94167 -3.225,-7.16667 -7.16667,-7.16667c-3.94167,0 -7.16667,3.225 -7.16667,7.16667c0,3.94167 3.225,7.16667 7.16667,7.16667c3.94167,0 7.16667,-3.225 7.16667,-7.16667" fill="#fb8c00"></path><path d="M118.25,50.16667h-64.5v32.25c0,15.76667 12.9,28.66667 28.66667,28.66667h7.16667c15.76667,0 28.66667,-12.9 28.66667,-28.66667z" fill="#ffa726"></path><path d="M50.16667,60.91667v8.24167l7.16667,6.09167c0,0 0,-3.58333 0,-14.33333c0,-10.75 15.05,-14.33333 34.04167,-14.33333c11.825,0 20.425,4.3 20.425,4.3c0,0 2.86667,2.86667 2.86667,10.03333c0,3.58333 0,14.33333 0,14.33333l7.16667,-6.09167v-8.24167c0,-14.33333 -9.31667,-21.5 -30.1,-21.5c-15.40833,0 -41.56667,1.79167 -41.56667,21.5z" fill="#ffca28"></path><path d="M78.83333,78.83333h-10.75c0,-2.15 2.50833,-3.58333 5.375,-3.58333c2.86667,0 5.375,1.43333 5.375,3.58333M103.91667,78.83333c0,-2.15 -2.50833,-3.58333 -5.375,-3.58333c-2.86667,0 -5.375,1.43333 -5.375,3.58333h10.75" fill="#37474f"></path><path d="M73.45833,68.08333c-2.86667,0 -8.95833,3.58333 -8.95833,3.58333c0,0 3.58333,0 7.16667,0c3.58333,0 7.16667,0 7.16667,0c0,-2.15 -2.50833,-3.58333 -5.375,-3.58333zM98.54167,68.08333c-2.86667,0 -5.375,1.43333 -5.375,3.58333c0,0 3.58333,0 7.16667,0c3.58333,0 7.16667,0 7.16667,0c0,0 -6.09167,-3.58333 -8.95833,-3.58333z" fill="#ffd54f"></path><path d="M82.41667,129l-3.225,24.36667l1.075,4.3c3.94167,0.35833 7.525,0.35833 11.46667,0l1.075,-4.3l-3.225,-24.36667zM78.83333,121.83333l3.58333,7.16667h7.16667l3.58333,-7.16667z" fill="#e74c3c"></path><path d="M39.41667,43c0,7.16667 18.63333,17.91667 44.79167,17.91667c29.025,0 37.625,-8.6 37.625,-17.91667c0,-7.16667 -5.01667,-17.91667 -35.83333,-17.91667c-14.33333,0 -35.83333,17.91667 -46.58333,17.91667z" fill="#ffd54f"></path><path d="M93.16667,107.5c0,3.94167 -3.225,7.16667 -7.16667,7.16667c-3.94167,0 -7.16667,-3.225 -7.16667,-7.16667c0,-3.94167 3.225,-7.16667 7.16667,-7.16667c3.94167,0 7.16667,3.225 7.16667,7.16667" fill="#ffa726"></path><path d="M78.83333,96.75h14.33333c0,3.225 -3.58333,4.65833 -3.58333,4.65833h-7.16667c0,0 -3.58333,-1.43333 -3.58333,-4.65833z" fill="#f57c00"></path><path d="M91.375,103.91667h-10.75c0,-3.225 2.86667,-4.65833 2.86667,-4.65833h5.375c0,0 2.50833,1.43333 2.50833,4.65833z" fill="#f57c00"></path><path d="M86,161.25c-41.56667,0 -75.25,-33.68333 -75.25,-75.25c0,-41.56667 33.68333,-75.25 75.25,-75.25c41.56667,0 75.25,33.68333 75.25,75.25c0,41.56667 -33.68333,75.25 -75.25,75.25zM86,17.91667c-37.625,0 -68.08333,30.45833 -68.08333,68.08333c0,37.625 30.45833,68.08333 68.08333,68.08333c37.625,0 68.08333,-30.45833 68.08333,-68.08333c0,-37.625 -30.45833,-68.08333 -68.08333,-68.08333z" fill="#e74c3c"></path></g></g></svg>